<?xml version="1.0" encoding="utf-8"?>
<!-- Generator: Adobe Illustrator 16.0.0, SVG Export Plug-In . SVG Version: 6.00 Build 0)  -->
<!DOCTYPE svg PUBLIC "-//W3C//DTD SVG 1.1//EN" "http://www.w3.org/Graphics/SVG/1.1/DTD/svg11.dtd">
<svg version="1.1" id="图层_1" xmlns="http://www.w3.org/2000/svg" xmlns:xlink="http://www.w3.org/1999/xlink" x="0px" y="0px"
	 width="447px" height="113.562px" viewBox="0.031 -1 447 113.562" enable-background="new 0.031 -1 447 113.562"
	 xml:space="preserve">
<path fill="#7E7F83" d="M171.482,5.166c-0.322,0-5.997,0-6.22,0c-0.289,0-0.505-0.29-0.335-0.578
	c0.136-0.231,2.869-4.837,3.104-5.229c0.153-0.258,0.52-0.254,0.674,0c0.172,0.282,2.92,4.906,3.111,5.241
	C171.956,4.845,171.8,5.166,171.482,5.166z"/>
<path fill="#A1ABB7" d="M158.603,17h-4.659v-4.263h-4.717V17h-4.892c-0.153,0-0.276-0.12-0.276-0.27v-6.71H142V8.29L151.469-1
	L161,8.29l-0.003,1.729h-2.118v6.711C158.879,16.88,158.756,17,158.603,17z"/>
<path fill="#A1ABB7" d="M155.617,56.636c0.536,0.606,0.506,1.56-0.067,2.126c-0.572,0.567-1.471,0.536-2.007-0.07l-2.558-3.457
	c-0.125-0.142-0.194-0.312-0.237-0.484c-0.91,0.551-1.968,0.854-3.092,0.812c-3.23-0.111-5.761-2.979-5.653-6.4
	c0.108-3.421,2.813-6.104,6.043-5.988s5.761,2.979,5.653,6.402c-0.047,1.502-0.595,2.859-1.468,3.9
	c0.108,0.061,0.212,0.127,0.299,0.229L155.617,56.636z M148.002,44.58c-2.496-0.089-4.586,1.982-4.67,4.628
	c-0.083,2.644,1.872,4.858,4.368,4.946c2.496,0.089,4.587-1.983,4.67-4.629C152.455,46.883,150.499,44.667,148.002,44.58z"/>
<path fill="#A1ABB7" d="M144.87,37.167c1.585,0,2.87,1.343,2.87,3.001c0,1.656-1.285,2.999-2.87,2.999S142,41.824,142,40.168
	C142,38.51,143.285,37.167,144.87,37.167z M154,37.167c1.584,0,2.87,1.343,2.87,3.001c0,1.656-1.285,2.999-2.87,2.999
	s-2.87-1.343-2.87-2.999C151.131,38.51,152.416,37.167,154,37.167z M163.131,37.167c1.584,0,2.869,1.343,2.869,3.001
	c0,1.656-1.285,2.999-2.869,2.999c-1.585,0-2.87-1.343-2.87-2.999C160.261,38.51,161.546,37.167,163.131,37.167z"/>
<path fill="#D0D2D5" d="M171.482,12.166c-0.323,0-5.997,0-6.221,0c-0.288,0-0.504-0.291-0.335-0.579
	c0.136-0.23,2.87-4.836,3.104-5.229c0.153-0.258,0.52-0.254,0.674,0c0.171,0.283,2.92,4.907,3.11,5.241
	C171.956,11.844,171.8,12.166,171.482,12.166z"/>
<path fill="#7F7F83" d="M202.178,24.01c0.062,1.424-1.072,3.785-3.781,4.493c-3.154,0.825-6.895,0.025-7.51-2.902
	c-0.615-2.931,3.999-6.573,9.383-4.444l1.268-14.268h-14.891l-1.265,17.788c0,1.426-1.236,3.729-3.972,4.294
	c-3.19,0.662-6.889-0.329-7.375-3.286c-0.486-2.957,4.282-6.36,9.567-3.955l1.678-22.402L204-0.833L202.178,24.01z"/>
<path fill="#EEEEEE" d="M202.178,55.842c0.062,1.424-1.072,3.786-3.781,4.494c-3.154,0.824-6.895,0.023-7.51-2.904
	c-0.615-2.93,3.999-6.572,9.383-4.44l1.268-14.271h-14.891l-1.265,17.788c0,1.427-1.236,3.728-3.972,4.294
	c-3.19,0.662-6.889-0.328-7.375-3.285c-0.486-2.957,4.282-6.358,9.567-3.955l1.678-22.4L204,31L202.178,55.842z"/>
<path fill="#7F7F83" d="M236.518,28h-25.908c-2.784,0-5.047-2.14-5.047-4.78V11.668c0-2.599,2.192-4.702,4.918-4.768V6.278
	c0-0.617,0.529-1.119,1.185-1.119s1.185,0.502,1.185,1.119v0.609h1.328l0.014-1.354L219.389-1h8.496l5.034,6.533l0.013,1.354h3.586
	c2.787,0,5.045,2.14,5.045,4.78V23.22C241.562,25.86,239.305,28,236.518,28z M234.498,18.728c1.115,0,2.02-0.855,2.02-1.911
	s-0.904-1.913-2.02-1.913V18.728z M223.752,7.236c-5.436,0-9.841,4.173-9.841,9.321s4.405,9.322,9.841,9.322
	s9.841-4.174,9.841-9.322S229.188,7.236,223.752,7.236z M237.329,9.594h-1.614c-0.695,0-1.259,0.534-1.259,1.193
	c0,0.657,0.563,1.191,1.259,1.191h1.614c0.694,0,1.259-0.534,1.259-1.191C238.588,10.128,238.023,9.594,237.329,9.594z
	 M223.752,22.617c-3.533,0-6.396-2.712-6.396-6.06c0-3.346,2.865-6.059,6.396-6.059c3.533,0,6.396,2.713,6.396,6.059
	C230.148,19.905,227.285,22.617,223.752,22.617z"/>
<path fill="#EEEEEE" d="M236.518,60h-25.908c-2.784,0-5.047-2.141-5.047-4.779V43.668c0-2.6,2.192-4.701,4.918-4.768v-0.621
	c0-0.618,0.529-1.12,1.185-1.12s1.185,0.502,1.185,1.12v0.605h1.328l0.014-1.354L219.389,31h8.496l5.034,6.533l0.013,1.354h3.586
	c2.787,0,5.045,2.141,5.045,4.78v11.554C241.562,57.859,239.305,60,236.518,60z M234.498,50.729c1.115,0,2.02-0.854,2.02-1.912
	c0-1.056-0.904-1.909-2.02-1.909V50.729z M223.752,39.236c-5.436,0-9.841,4.174-9.841,9.32s4.405,9.32,9.841,9.32
	s9.841-4.174,9.841-9.32S229.188,39.236,223.752,39.236z M237.329,41.596h-1.614c-0.695,0-1.259,0.532-1.259,1.19
	c0,0.659,0.563,1.192,1.259,1.192h1.614c0.694,0,1.259-0.533,1.259-1.192C238.588,42.128,238.023,41.596,237.329,41.596z
	 M223.752,54.617c-3.533,0-6.396-2.713-6.396-6.061c0-3.347,2.865-6.06,6.396-6.06c3.533,0,6.396,2.713,6.396,6.06
	C230.148,51.904,227.285,54.617,223.752,54.617z"/>
<path fill="#7F7F83" d="M250.613,14.196h2.527c1.07,0,1.94,0.905,1.94,2.021v9.764c0,1.116-0.87,2.02-1.94,2.02h-2.527
	c-1.073,0-1.944-0.903-1.944-2.02v-9.764C248.669,15.102,249.54,14.196,250.613,14.196z M268.732,14.196h2.524
	c1.073,0,1.943,0.905,1.943,2.021v9.764c0,1.116-0.87,2.02-1.943,2.02h-2.524c-1.074,0-1.944-0.903-1.944-2.02v-9.764
	C266.788,15.102,267.658,14.196,268.732,14.196z M276.98,23.836h-2.16l-0.037-11.438C272.952,6.151,267.631,1.616,261,1.616
	s-11.952,4.535-13.782,10.782l-0.038,11.438h-2.158L245,11.745C246.934,4.439,253.354-1,261-1s14.068,5.439,16,12.745L276.98,23.836
	z"/>
<path fill="#EEEEEE" d="M250.611,46.197h2.529c1.07,0,1.94,0.904,1.94,2.021v9.765c0,1.115-0.87,2.021-1.94,2.021h-2.529
	c-1.072,0-1.942-0.899-1.942-2.021v-9.765C248.669,47.102,249.539,46.197,250.611,46.197z M268.732,46.197h2.523
	c1.074,0,1.944,0.904,1.944,2.021v9.765c0,1.115-0.87,2.021-1.944,2.021h-2.523c-1.074,0-1.944-0.899-1.944-2.021v-9.765
	C266.788,47.102,267.658,46.197,268.732,46.197z M276.98,55.836h-2.16l-0.038-11.438c-1.83-6.248-7.151-10.781-13.782-10.781
	s-11.952,4.533-13.782,10.781l-0.038,11.438h-2.16L245,43.746C246.934,36.439,253.354,31,261,31s14.066,5.439,16,12.746
	L276.98,55.836z"/>
<path fill="#7F7F83" d="M304.243,25.966c-1.265-1.004-3.293-1.671-5.345-1.671c-1.967,0-3.951,0.281-5.303,1.215
	c0.016,0.127,0.024,0.256,0.024,0.392c0,0.883-0.356,1.598-0.802,1.598h-1.413c-0.44,0-0.804-0.715-0.804-1.598
	c0-0.125,0.011-0.245,0.023-0.362c-1.271-0.948-3.169-1.244-5.092-1.244c-2.125,0-4.275,0.665-5.623,1.669
	c-0.852,0.634-1.381-1.021-1.381-1.021l0.503-17.104c0,0,3.03-3.34,6.5-3.34c2.772,0,5.501,1.812,6.358,2.956h0.275v0.026
	C293.061,6.367,296,4.5,298.898,4.5c3.347,0,6.132,3.34,6.132,3.34l0.503,16.977C305.533,24.815,305.04,26.6,304.243,25.966z
	 M291.618,8.914c-1.05-1.073-3.548-1.986-6.039-1.986c-3.446,0-5.573,2.531-5.573,2.531v13.441c0,0,3.147-2.396,6.239-2.396
	c2.215,0,4.396,1.036,5.373,1.895V8.914L291.618,8.914z M304.061,9.458c0,0-1.861-2.492-5.146-2.525l0.188,9.262l-2.397-2.139
	l-2.423,2.286l-0.172-8.498c-0.803,0.318-1.426,0.674-1.754,0.988l0.093,13.831c0.812-0.709,3.137-2.159,5.702-2.159
	c2.98,0,5.91,2.396,5.91,2.396V9.458z"/>
<path fill="#EEEEEE" d="M304.245,58.963c-1.265-1.002-3.293-1.67-5.345-1.67c-1.967,0-3.951,0.281-5.303,1.215
	c0.016,0.127,0.024,0.256,0.024,0.391c0,0.887-0.356,1.602-0.802,1.602h-1.413c-0.44,0-0.804-0.715-0.804-1.602
	c0-0.121,0.011-0.242,0.023-0.359c-1.271-0.947-3.169-1.242-5.092-1.242c-2.125,0-4.275,0.664-5.623,1.668
	c-0.852,0.637-1.381-1.02-1.381-1.02l0.503-17.105c0,0,3.03-3.34,6.5-3.34c2.772,0,5.501,1.812,6.358,2.957h0.275v0.023
	c0.891-1.113,3.828-2.98,6.729-2.98c3.347,0,6.132,3.34,6.132,3.34l0.503,16.979C305.535,57.812,305.042,59.598,304.245,58.963z
	 M291.62,41.912c-1.05-1.074-3.548-1.986-6.039-1.986c-3.446,0-5.573,2.529-5.573,2.529v13.441c0,0,3.147-2.396,6.239-2.396
	c2.215,0,4.396,1.035,5.373,1.895V41.912L291.62,41.912z M304.062,42.455c0,0-1.861-2.492-5.146-2.525l0.188,9.266l-2.397-2.143
	l-2.423,2.287l-0.172-8.498c-0.803,0.318-1.426,0.674-1.754,0.988l0.093,13.832c0.812-0.711,3.137-2.16,5.702-2.16
	c2.98,0,5.91,2.396,5.91,2.396V42.455z"/>
<path fill="#7E7F83" d="M165.252,20.52c0.322,0,5.997,0,6.22,0c0.289,0,0.505,0.291,0.335,0.579
	c-0.136,0.23-2.869,4.837-3.104,5.229c-0.153,0.258-0.52,0.254-0.674,0c-0.172-0.283-2.92-4.906-3.111-5.241
	C164.778,20.842,164.934,20.52,165.252,20.52z"/>
<path fill="#D0D2D5" d="M165.252,13.52c0.323,0,5.997,0,6.221,0c0.288,0,0.504,0.292,0.335,0.58
	c-0.136,0.229-2.87,4.836-3.104,5.229c-0.153,0.259-0.52,0.255-0.674,0c-0.171-0.283-2.92-4.906-3.11-5.24
	C164.778,13.843,164.934,13.52,165.252,13.52z"/>
<path opacity="0.6" fill="#FFFFFF" d="M338,34l9.505-10.637c1.028-1.151,2.694-1.151,3.724,0c1.029,1.151,1.029,3.017,0,4.167
	L345.451,34l5.777,6.471c1.029,1.149,1.029,3.016,0,4.166c-1.025,1.151-2.693,1.151-3.724,0L338,34z"/>
<path opacity="0.6" fill="#FFFFFF" d="M352,10.5l-9.505,10.637c-1.027,1.15-2.693,1.15-3.725,0c-1.026-1.151-1.026-3.018,0-4.168
	L344.55,11l-5.779-6.969c-1.026-1.15-1.026-3.017,0-4.168c1.028-1.15,2.695-1.15,3.725,0L352,10.5z"/>
<path fill="#7F7F83" d="M328.014,27.95c0,0-2.619,0.521-2.703-1.273c2.412-2.085,1.701-5.431,1.701-5.431h-13.789
	c-2.928,0-6.223-2.375-6.223-5.306V4.912c0-2.93,3.295-5.892,6.223-5.892h17.641c2.927,0,6.138,2.962,6.138,5.892V15.94
	C337.083,22.978,329.518,27.698,328.014,27.95z M335.148,5.583c0-2.486-2.017-4.503-4.5-4.503H314.1
	c-2.482,0-4.918,2.017-4.918,4.503v9.101c0,2.486,2.436,4.503,4.918,4.503h14.92l-0.129,5.53c2.483,0,6.426-4.865,6.26-10.033V5.583
	H335.148z"/>
<path fill="#EEEEEE" d="M328.014,59.93c0,0-2.619,0.521-2.703-1.271c2.412-2.084,1.701-5.432,1.701-5.432h-13.789
	c-2.928,0-6.223-2.375-6.223-5.307V36.893c0-2.932,3.295-5.893,6.223-5.893h17.641c2.927,0,6.138,2.961,6.138,5.893V47.92
	C337.083,54.957,329.518,59.678,328.014,59.93z M335.148,37.562c0-2.486-2.017-4.504-4.5-4.504H314.1
	c-2.482,0-4.918,2.018-4.918,4.504v9.101c0,2.485,2.436,4.503,4.918,4.503h14.92l-0.129,5.529c2.483,0,6.426-4.864,6.26-10.032
	v-9.101H335.148z"/>
<g>
	<g opacity="0.4">
		<path d="M351.507-0.411h19v20L351.507-0.411z"/>
	</g>
	<g>
		
			<linearGradient id="SVGID_1_" gradientUnits="userSpaceOnUse" x1="582.0732" y1="-951.02" x2="563.0732" y2="-951.02" gradientTransform="matrix(1 0 0 -1 -211 -942)">
			<stop  offset="0" style="stop-color:#F3BE39"/>
			<stop  offset="1" style="stop-color:#F79131"/>
		</linearGradient>
		<path fill="url(#SVGID_1_)" d="M352.074-0.979h19v20L352.074-0.979z"/>
	</g>
</g>
<path fill-rule="evenodd" clip-rule="evenodd" fill="#A1ABB7" d="M145.078,17h13.846c1.699,0,3.076,1.382,3.076,3.086v8.334
	c0,1.705-1.377,3.087-3.076,3.087h-1.129L151.173,37l0.5-5.493h-6.595c-1.7,0-3.078-1.382-3.078-3.087v-8.334
	C142,18.382,143.378,17,145.078,17z M146.663,20.785h10.676c0.3,0,0.544,0.245,0.544,0.546c0,0.302-0.244,0.546-0.544,0.546h-10.676
	c-0.301,0-0.544-0.244-0.544-0.546C146.118,21.03,146.362,20.785,146.663,20.785z M146.663,23.627h10.676
	c0.3,0,0.544,0.244,0.544,0.546c0,0.301-0.244,0.546-0.544,0.546h-10.676c-0.301,0-0.544-0.245-0.544-0.546
	C146.118,23.871,146.362,23.627,146.663,23.627z M146.663,26.468h10.676c0.3,0,0.544,0.245,0.544,0.546
	c0,0.302-0.244,0.546-0.544,0.546h-10.676c-0.301,0-0.544-0.244-0.544-0.546C146.118,26.712,146.362,26.468,146.663,26.468z"/>
<path fill-rule="evenodd" clip-rule="evenodd" fill="#1F242F" d="M15.393,17.135c-0.867-1.009,0.491-2.329,1.31-2.625
	c1.017-0.369,1.912-0.285,2.527,0.529c0.56,0.74,0.186,1.767-0.762,2.363C17.444,18.045,16.156,18.022,15.393,17.135L15.393,17.135z
	 M49.067,40.743c0.281-1.276,0.577-2.552,0.863-3.826c0.286-1.278,0.59-2.554,0.881-3.832c0.498-2.507,0.986-5.014,1.482-7.52
	c0.498-2.508,1.014-5.01,1.52-7.521c0.122-0.606,0.253-1.498,0.45-2.677c1.548,0.023,2.871,0.037,3.968,0.037
	c0.685,0,1.754-0.012,3.208-0.037c1.436-0.025,2.458-0.04,3.068-0.04c2.063,0,3.751,0.168,5.093,0.482
	c1.022,0.239,1.924,0.653,2.711,1.251c0.771,0.588,1.435,1.365,1.96,2.329c0.525,0.959,0.85,2.017,0.985,3.171
	c0.164,1.392,0.113,2.837-0.141,4.348c-0.348,2.07-1.064,4.051-2.102,5.959c-1.035,1.901-2.39,3.494-4.024,4.76
	c-1.639,1.272-3.367,2.107-5.215,2.512c-1.829,0.401-3.837,0.607-6.013,0.604c-1.698-0.006-3.395-0.026-5.103-0.037
	C52.332,40.704,51.131,40.721,49.067,40.743L49.067,40.743z M52.978,38.249c1.492,0.039,2.88,0.057,4.166,0.057
	c1.069,0,2.176-0.055,3.32-0.159c1.136-0.104,2.167-0.297,3.105-0.583c0.929-0.283,1.89-0.807,2.861-1.535
	c0.989-0.742,1.831-1.572,2.533-2.507c0.705-0.938,1.294-1.98,1.764-3.139c0.469-1.16,0.79-2.338,0.984-3.531
	c0.218-1.334,0.282-2.576,0.122-3.711c-0.16-1.144-0.57-2.173-1.247-3.091c-0.674-0.915-1.567-1.526-2.646-1.828
	c-1.088-0.305-2.571-0.456-4.446-0.456c-2.308,0-4.409,0.018-6.313,0.055c-0.713,3.405-1.403,6.812-2.102,10.214
	C54.381,31.441,53.672,34.846,52.978,38.249L52.978,38.249z M92.507,26.522c2.11,0.013,3.742,0.021,4.887,0.021
	c1.218,0,2.588-0.008,4.108-0.021c-0.46,1.854-0.947,3.9-1.445,6.135c-0.498,2.236-1.012,4.669-1.538,7.287
	c-3.837,0.807-7.083,1.204-9.709,1.204c-1.941,0-3.752-0.251-5.44-0.76s-3.068-1.282-4.109-2.323
	c-1.041-1.042-1.721-2.38-2.063-4.017c-0.341-1.639-0.359-3.361-0.046-5.186c0.353-2.067,1.073-4.012,2.167-5.843
	c1.09-1.826,2.448-3.362,4.08-4.601c1.624-1.235,3.387-2.125,5.253-2.658c1.857-0.532,3.865-0.802,6.021-0.802
	c2.374,0,4.954,0.319,7.749,0.948c-0.141,0.932-0.252,1.935-0.355,3.015c-1.614-0.574-3.041-0.966-4.25-1.181
	c-1.22-0.217-2.364-0.325-3.414-0.325c-1.669,0-3.292,0.257-4.878,0.757c-1.594,0.502-3.005,1.263-4.269,2.301
	c-1.25,1.03-2.266,2.312-3.085,3.835c-0.823,1.531-1.375,3.102-1.65,4.72c-0.25,1.453-0.249,2.81-0.02,4.079
	c0.229,1.271,0.729,2.313,1.491,3.117c0.757,0.801,1.745,1.422,2.983,1.847c1.238,0.426,2.608,0.642,4.137,0.642
	c0.835,0,1.838-0.079,3.011-0.235c1.182-0.156,2.391-0.412,3.629-0.785c0.311-1.465,0.643-2.931,0.957-4.393
	c0.316-1.465,0.648-2.93,0.967-4.397c-0.583,0-1.154,0-1.727,0c-1.153,0-2.485,0.031-3.986,0.093
	C92.197,28.104,92.375,27.279,92.507,26.522L92.507,26.522z M112.28,38.288c-0.234,0.608-0.535,1.414-0.874,2.418
	c-0.862,0.198-1.548,0.318-2.043,0.366c-0.507,0.049-0.977,0.076-1.408,0.076c-1.098,0-1.941-0.14-2.551-0.416
	c-0.619-0.28-1.045-0.727-1.294-1.341c-0.25-0.61-0.276-1.444-0.085-2.499c0.024-0.132,0.075-0.376,0.15-0.727
	c0.075-0.348,0.357-1.553,0.834-3.621c0.321-1.387,0.647-2.775,0.966-4.161c0.319-1.386,0.638-2.776,0.977-4.165
	c-0.826,0-1.642,0-2.458,0c0.15-0.521,0.327-1.262,0.534-2.233c0.835,0,1.661,0,2.505,0c0.188-0.692,0.468-1.878,0.825-3.555
	c1.201-0.222,2.223-0.437,3.058-0.633c-0.422,1.833-0.731,3.229-0.909,4.188c1.708,0,3.415,0,5.13,0
	c-0.207,0.781-0.384,1.529-0.525,2.233c-1.708,0-3.414,0-5.112,0c-0.403,1.745-0.792,3.493-1.191,5.233
	c-0.399,1.742-0.788,3.487-1.181,5.229c-0.057,0.268-0.12,0.534-0.169,0.803c-0.167,0.898-0.196,1.58-0.074,2.028
	c0.123,0.461,0.375,0.781,0.74,0.977c0.366,0.197,0.779,0.299,1.21,0.299c0.301,0,0.638-0.026,0.995-0.075
	C110.693,38.662,111.351,38.521,112.28,38.288L112.28,38.288z M113.611,40.743c0.478-1.909,0.979-3.994,1.51-6.254
	c0.529-2.261,1.105-4.7,1.698-7.321c0.43-1.897,0.839-3.833,1.257-5.798c0.417-1.968,0.844-3.968,1.257-6.003
	c0.572,0.008,1.143,0.015,1.716,0.018c0.366,0.002,0.911-0.008,1.642-0.018c-0.432,1.82-0.882,3.64-1.303,5.458
	c-0.423,1.817-0.854,3.638-1.286,5.455c-0.404,1.841-0.815,3.685-1.219,5.523c-0.403,1.84-0.816,3.681-1.21,5.519
	c-0.243,1.143-0.469,2.28-0.703,3.421c-0.723-0.022-1.257-0.037-1.595-0.037C115.215,40.706,114.625,40.721,113.611,40.743
	L113.611,40.743z M136.827,37.78c-0.272,0.686-0.581,1.556-0.938,2.608c-1.22,0.299-2.281,0.498-3.161,0.603
	c-0.882,0.105-1.754,0.157-2.599,0.157c-1.528,0-2.879-0.185-4.024-0.557c-1.133-0.37-2.062-1.016-2.757-1.941
	c-0.693-0.923-1.13-1.979-1.284-3.166c-0.157-1.194-0.116-2.453,0.13-3.778c0.344-1.846,1.012-3.559,2.008-5.139
	c0.993-1.58,2.271-2.821,3.845-3.725c1.578-0.906,3.453-1.359,5.609-1.359c1.116,0,2.165,0.171,3.114,0.495
	c0.974,0.331,1.727,0.824,2.27,1.492c0.545,0.672,0.911,1.5,1.089,2.488c0.178,0.984,0.161,2.054-0.056,3.224
	c-0.083,0.441-0.207,0.881-0.366,1.3c-4.671,0-9.353,0-14.023,0c-0.178,0.68-0.298,1.199-0.366,1.56
	c-0.242,1.301-0.2,2.506,0.13,3.593c0.336,1.104,0.978,1.927,1.924,2.494c0.938,0.563,2.101,0.843,3.47,0.843
	C132.418,38.972,134.406,38.575,136.827,37.78L136.827,37.78z M126.114,28.941c3.649,0,7.308,0,10.957,0
	c0.141-0.782,0.224-1.39,0.215-1.822c-0.01-0.438-0.089-0.89-0.225-1.352c-0.137-0.464-0.393-0.87-0.722-1.205
	c-0.337-0.344-0.771-0.601-1.294-0.781c-0.527-0.181-1.116-0.275-1.763-0.275c-0.694,0-1.387,0.106-2.046,0.299
	c-0.684,0.2-1.291,0.478-1.829,0.819c-0.56,0.355-1.053,0.752-1.482,1.218c-0.425,0.46-0.749,0.916-0.994,1.346
	C126.679,27.628,126.406,28.211,126.114,28.941L126.114,28.941z M63.26,8.336c0.389-0.572,0.79-1.144,1.185-1.718
	c0.392-0.57,0.786-1.145,1.184-1.718c-0.842,0-1.68,0-2.521,0c-0.347,0.727-0.699,1.454-1.051,2.179c-0.125,0-0.25,0-0.375,0
	c0.301-0.621,0.605-1.244,0.898-1.864c0.294-0.622,0.601-1.243,0.907-1.865c0.139,0,0.278,0,0.417,0
	c-0.199,0.391-0.389,0.783-0.583,1.173c1.073,0,2.151,0,3.229,0c-0.028,0.126-0.056,0.252-0.084,0.377c-0.139,0-0.282,0-0.421,0
	c-0.435,0.637-0.877,1.274-1.309,1.907c-0.434,0.637-0.87,1.271-1.305,1.906c0.25,0.553,0.502,1.105,0.75,1.656
	c0.248,0.553,0.503,1.104,0.758,1.655c-0.157,0-0.31,0-0.458,0c-0.231-0.488-0.453-0.977-0.676-1.465
	c-0.222-0.489-0.443-0.978-0.666-1.468c-0.366,0.49-0.732,0.978-1.097,1.468c-0.363,0.487-0.716,0.977-1.078,1.465
	c-0.144,0-0.278,0-0.417,0c0.398-0.545,0.8-1.09,1.198-1.634c0.398-0.545,0.81-1.09,1.217-1.636
	c-0.264-0.572-0.519-1.145-0.773-1.717c0.153,0,0.305,0,0.462,0C62.857,7.469,63.052,7.903,63.26,8.336L63.26,8.336z M58.254,10.599
	c0.693,0.308,1.374,0.615,2.067,0.921c-0.032,0.141-0.064,0.281-0.091,0.421c-0.792-0.363-1.578-0.727-2.36-1.091
	c-0.587,0.404-1.174,0.81-1.763,1.214c-0.199,0-0.393,0-0.587,0c0.657-0.459,1.31-0.919,1.961-1.38
	c-0.337-0.168-0.681-0.336-1.013-0.504c0.282-0.363,0.564-0.726,0.851-1.089c-0.42,0-0.841,0-1.258,0
	c0.028-0.125,0.056-0.251,0.079-0.377c0.476,0,0.949,0,1.429,0c0.162-0.209,0.333-0.419,0.509-0.628c0.139,0,0.277,0,0.42,0
	c-0.162,0.209-0.319,0.419-0.472,0.628c0.991,0,1.98,0,2.97,0C60.082,9.342,59.17,9.971,58.254,10.599L58.254,10.599z M60.146,5.234
	c-0.18,0-0.361,0-0.545,0c0.028,0,0.055,0,0.083,0c-0.019,0.085-0.037,0.169-0.051,0.252c0.754,0,1.508,0,2.267,0
	c-0.028,0.126-0.056,0.251-0.079,0.377c-0.758,0-1.513,0-2.267,0c-0.157,0.741-0.31,1.48-0.472,2.221c-0.139,0-0.282,0-0.42,0
	c0.161-0.74,0.313-1.48,0.472-2.221c-0.782,0-1.564,0-2.346,0c0.023-0.125,0.052-0.25,0.079-0.377c0.782,0,1.563,0,2.346,0
	c0.014-0.083,0.032-0.167,0.05-0.25c-0.153,0-0.31,0-0.458,0c-0.467-0.6-0.921-1.201-1.383-1.802c0.185,0,0.366,0,0.546,0
	c0.439,0.572,0.879,1.146,1.31,1.718c0.134-0.586,0.254-1.174,0.379-1.761c0.139,0,0.277,0,0.421,0
	c-0.125,0.587-0.245,1.175-0.379,1.761c0.685-0.573,1.369-1.146,2.049-1.718c0.181,0,0.361,0,0.546,0
	C61.576,4.034,60.859,4.635,60.146,5.234L60.146,5.234z M57.042,10.013c0.277,0.14,0.555,0.279,0.833,0.417
	c0.662-0.446,1.333-0.893,1.999-1.34c-0.712,0-1.425,0-2.133,0C57.51,9.398,57.273,9.705,57.042,10.013L57.042,10.013z
	 M59.161,6.115c-0.81,0.671-1.619,1.341-2.429,2.012c-0.18,0-0.366,0-0.546,0c0.81-0.67,1.624-1.341,2.429-2.012
	C58.8,6.115,58.98,6.115,59.161,6.115L59.161,6.115z M59.461,6.115c0.176,0,0.357,0,0.537,0c0.458,0.671,0.916,1.341,1.378,2.012
	c-0.18,0-0.361,0-0.546,0C60.374,7.457,59.919,6.786,59.461,6.115L59.461,6.115z M72.876,8.712c1.628,0,3.261,0,4.895,0
	c0.056-0.25,0.111-0.503,0.167-0.754c0.796-0.586,1.596-1.172,2.397-1.759c-1.721,0-3.443,0-5.159,0
	c0.028-0.125,0.056-0.251,0.083-0.378c2.064,0,4.132,0,6.205,0c-0.014,0.015-0.033,0.027-0.047,0.042
	c-0.522,0.377-1.041,0.756-1.554,1.133c-0.513,0.375-1.027,0.753-1.541,1.131c-0.042,0.195-0.088,0.391-0.129,0.585
	c1.282,0,2.563,0,3.849,0c-0.027,0.126-0.056,0.253-0.083,0.377c-1.285,0-2.567,0-3.849,0c-0.102,0.49-0.214,0.979-0.318,1.468
	c-0.106,0.488-0.214,0.977-0.32,1.465c-0.948,0-1.896,0-2.841,0c-0.073-0.125-0.146-0.25-0.216-0.376c0.906,0,1.813,0,2.72,0
	c0.092-0.425,0.184-0.852,0.277-1.277c0.092-0.425,0.19-0.853,0.277-1.28c-1.633,0-3.266,0-4.894,0
	C72.821,8.965,72.849,8.839,72.876,8.712L72.876,8.712z M78.687,3.181c0.135,0.224,0.269,0.448,0.399,0.67c1.286,0,2.572,0,3.857,0
	c-0.087,0.392-0.18,0.784-0.263,1.174c-0.083,0.39-0.167,0.782-0.254,1.174c-0.143,0-0.282,0-0.416,0
	c0.143-0.656,0.286-1.313,0.43-1.971c-2.656,0-5.316,0-7.966,0C74.33,4.887,74.191,5.543,74.047,6.2c-0.143,0-0.287,0-0.42,0
	c0.083-0.392,0.167-0.784,0.249-1.174c0.083-0.391,0.172-0.782,0.26-1.174c1.48,0,2.965,0,4.445,0
	c-0.12-0.222-0.239-0.446-0.355-0.67C78.377,3.181,78.53,3.181,78.687,3.181L78.687,3.181z M98.475,5.779c-2.507,0-5.005,0-7.508,0
	c-0.111,0.504-0.221,1.007-0.332,1.51c-0.112,0.502-0.222,1.005-0.334,1.508c-0.194,0.545-0.392,1.09-0.578,1.633
	c-0.185,0.543-0.375,1.089-0.56,1.634c-0.157,0-0.31,0-0.462,0c0.189-0.537,0.376-1.076,0.56-1.612
	c0.183-0.535,0.379-1.076,0.568-1.614c0.189-0.852,0.377-1.706,0.565-2.556c0.187-0.851,0.378-1.704,0.569-2.555
	c2.661,0,5.315,0,7.975,0C98.781,4.411,98.628,5.095,98.475,5.779L98.475,5.779z M91.059,5.362c2.346,0,4.696,0,7.052,0
	c0.092-0.419,0.185-0.838,0.282-1.257c-2.35,0-4.705,0-7.05,0C91.249,4.523,91.152,4.942,91.059,5.362L91.059,5.362z M97.425,10.976
	c-0.106,0.363-0.213,0.726-0.319,1.088c-0.02,0-0.033,0-0.047,0c-1.41,0-2.812,0-4.219,0c0.111-0.502,0.223-1.005,0.334-1.508
	c-0.972,0.098-1.943,0.195-2.91,0.293c0.027-0.125,0.056-0.252,0.083-0.378c0.971-0.098,1.938-0.195,2.915-0.292
	c0.093-0.419,0.186-0.837,0.277-1.256c-0.787,0.056-1.562,0.112-2.34,0.167c0.032-0.139,0.064-0.278,0.097-0.418
	c0.777-0.056,1.554-0.112,2.336-0.168c0.093-0.405,0.181-0.81,0.273-1.216c-0.781,0.056-1.559,0.112-2.34,0.167
	c0.031-0.139,0.059-0.278,0.091-0.418c2.119-0.125,4.243-0.25,6.371-0.377c-0.027,0.126-0.059,0.251-0.088,0.377
	c-1.206,0.083-2.409,0.167-3.613,0.25c-0.091,0.406-0.184,0.811-0.272,1.216c1.203-0.097,2.416-0.195,3.622-0.293
	c-0.029,0.126-0.061,0.251-0.083,0.375c-1.212,0.113-2.424,0.225-3.632,0.337c-0.087,0.405-0.181,0.809-0.268,1.213
	c1.425-0.139,2.85-0.278,4.275-0.418c-0.029,0.125-0.061,0.252-0.088,0.377c-1.425,0.14-2.851,0.28-4.276,0.42
	c-0.087,0.391-0.175,0.781-0.258,1.173c1.138,0,2.28,0,3.423,0c0.103-0.321,0.195-0.643,0.301-0.964
	C97.184,10.809,97.306,10.893,97.425,10.976L97.425,10.976z M114.574,9.509c-0.116,0.397-0.241,0.798-0.348,1.193
	c-0.105,0.395-0.222,0.796-0.333,1.194c-0.032,0-0.06,0-0.083,0c-2.706,0-5.408,0-8.11,0c0.311-1.375,0.625-2.755,0.935-4.126
	c0.309-1.374,0.624-2.751,0.939-4.127c2.627,0,5.26,0,7.892,0c-0.175,0.748-0.347,1.498-0.518,2.243
	c-0.172,0.745-0.342,1.494-0.518,2.241c-2.485,0-4.97,0-7.453,0c-0.13,0.566-0.262,1.133-0.389,1.697
	c-0.128,0.561-0.26,1.13-0.384,1.695c2.451,0,4.904,0,7.36,0c0.209-0.74,0.42-1.479,0.639-2.221
	C114.32,9.369,114.449,9.439,114.574,9.509L114.574,9.509z M111.6,4.02c-0.139,0.621-0.288,1.247-0.426,1.866
	c-0.137,0.617-0.282,1.243-0.425,1.863c1.115,0,2.235,0,3.35,0c0.144-0.621,0.289-1.246,0.431-1.863
	c0.14-0.618,0.286-1.245,0.43-1.866C113.838,4.02,112.718,4.02,111.6,4.02L111.6,4.02z M110.326,7.749
	c0.144-0.621,0.288-1.246,0.427-1.863c0.139-0.619,0.287-1.245,0.425-1.866c-1.092,0-2.183,0-3.271,0
	c-0.138,0.621-0.285,1.247-0.421,1.866c-0.136,0.618-0.282,1.243-0.426,1.863C108.148,7.749,109.238,7.749,110.326,7.749
	L110.326,7.749z M35.787,40.891l-0.436-0.33l-0.607-0.446l-0.22-0.158c0.062-0.038,0.121-0.078,0.173-0.111
	c0.049-0.032,0.101-0.069,0.153-0.106l0.899,0.708l-0.297-1.112c0.062-0.038,0.121-0.078,0.175-0.114
	c0.058-0.038,0.113-0.076,0.164-0.113l0.754,0.651c0.011,0.01,0.044,0.038,0.099,0.087l-0.027-0.097
	c0-0.002-0.005-0.027-0.015-0.072l-0.137-0.596l-0.089-0.364c0.063-0.042,0.116-0.076,0.161-0.106
	c0.036-0.024,0.09-0.062,0.163-0.112l0.184,0.974c0.039,0.211,0.08,0.411,0.121,0.6c-0.068,0.046-0.124,0.08-0.162,0.106
	c-0.04,0.027-0.101,0.067-0.183,0.126l-0.823-0.723c0.01,0.039,0.031,0.122,0.064,0.248l0.218,0.837
	c-0.07,0.045-0.123,0.078-0.159,0.104C35.924,40.794,35.865,40.835,35.787,40.891L35.787,40.891z M38.084,39.273l-0.467-0.283
	l-0.651-0.385l-0.236-0.132c0.059-0.048,0.112-0.09,0.159-0.129c0.047-0.039,0.094-0.079,0.142-0.122l0.969,0.611l-0.413-1.075
	c0.057-0.046,0.111-0.09,0.163-0.131c0.053-0.045,0.104-0.089,0.151-0.131l0.819,0.568c0.011,0.01,0.047,0.037,0.106,0.079
	l-0.037-0.096c0-0.002-0.008-0.025-0.022-0.068l-0.199-0.58l-0.127-0.353c0.058-0.047,0.107-0.088,0.148-0.122
	c0.034-0.029,0.083-0.071,0.151-0.131l0.287,0.954c0.061,0.202,0.123,0.397,0.183,0.582c-0.063,0.051-0.113,0.091-0.149,0.122
	c-0.037,0.03-0.093,0.078-0.168,0.146l-0.895-0.636c0.013,0.04,0.043,0.119,0.09,0.239l0.305,0.811
	c-0.064,0.053-0.113,0.092-0.146,0.119C38.211,39.163,38.156,39.21,38.084,39.273L38.084,39.273z M40.188,37.376l-0.502-0.214
	l-0.698-0.29l-0.252-0.1c0.051-0.054,0.098-0.105,0.14-0.15c0.04-0.045,0.081-0.092,0.123-0.14l1.046,0.474l-0.561-1.01
	c0.051-0.053,0.098-0.104,0.142-0.152c0.048-0.053,0.091-0.101,0.132-0.148l0.892,0.451c0.013,0.006,0.052,0.027,0.117,0.062
	l-0.05-0.09c0-0.002-0.012-0.022-0.032-0.062l-0.279-0.548l-0.176-0.334c0.051-0.053,0.094-0.1,0.13-0.139
	c0.029-0.032,0.073-0.081,0.132-0.149l0.417,0.902c0.089,0.194,0.178,0.378,0.265,0.553c-0.057,0.061-0.1,0.107-0.131,0.14
	c-0.033,0.038-0.081,0.092-0.146,0.167l-0.976-0.503c0.019,0.035,0.06,0.108,0.123,0.224l0.417,0.76
	c-0.057,0.061-0.1,0.108-0.129,0.139C40.297,37.251,40.25,37.307,40.188,37.376L40.188,37.376z M41.773,35.504
	c-0.054-0.044-0.156-0.127-0.307-0.246l0.136-0.172c0.012-0.017,0.049-0.067,0.113-0.155c0.054,0.047,0.109,0.092,0.166,0.137
	l0.138,0.114l-0.118,0.149C41.897,35.336,41.854,35.395,41.773,35.504L41.773,35.504z M43.17,33.469
	c-0.046,0.064-0.081,0.118-0.105,0.154c-0.026,0.042-0.062,0.097-0.107,0.17l-0.208-0.147c0.023,0.065,0.041,0.118,0.049,0.161
	c0.008,0.041,0.011,0.088,0.008,0.139c-0.002,0.053-0.012,0.104-0.031,0.154c-0.018,0.051-0.042,0.099-0.073,0.146
	c-0.05,0.078-0.112,0.143-0.186,0.19c-0.073,0.052-0.152,0.084-0.235,0.098c-0.083,0.017-0.168,0.013-0.255-0.012
	c-0.087-0.022-0.17-0.06-0.247-0.108c-0.108-0.069-0.2-0.156-0.276-0.262c-0.075-0.104-0.123-0.214-0.14-0.324
	c-0.017-0.11-0.01-0.22,0.022-0.324c0.032-0.105,0.081-0.211,0.147-0.311c0.049-0.075,0.111-0.155,0.185-0.239
	c-0.102-0.074-0.212-0.148-0.331-0.221l-0.083-0.056c0.051-0.074,0.09-0.132,0.117-0.173c0.034-0.053,0.072-0.113,0.113-0.18
	c0.197,0.149,0.471,0.349,0.82,0.593C42.704,33.159,42.976,33.345,43.17,33.469L43.17,33.469z M41.945,33.115
	c-0.056,0.05-0.102,0.104-0.139,0.16c-0.042,0.063-0.073,0.13-0.093,0.2c-0.02,0.071-0.023,0.14-0.008,0.215
	c0.014,0.071,0.047,0.143,0.099,0.211c0.052,0.065,0.111,0.12,0.174,0.16c0.063,0.04,0.128,0.065,0.196,0.077
	c0.066,0.012,0.131,0.002,0.192-0.026c0.061-0.026,0.111-0.069,0.149-0.131c0.029-0.044,0.048-0.089,0.056-0.136
	c0.007-0.047,0.004-0.096-0.009-0.146c-0.014-0.05-0.04-0.103-0.08-0.156c-0.039-0.056-0.099-0.114-0.181-0.178
	C42.242,33.318,42.123,33.234,41.945,33.115L41.945,33.115z M43.811,33.015c0.158-0.168,0.271-0.324,0.338-0.468
	c0.026-0.055,0.043-0.112,0.053-0.166c0.009-0.055,0.008-0.104-0.002-0.15c-0.011-0.044-0.034-0.087-0.07-0.126
	c-0.037-0.04-0.083-0.074-0.139-0.107c-0.056-0.033-0.144-0.079-0.262-0.137c0.032,0.056,0.053,0.102,0.067,0.143
	c0.014,0.039,0.022,0.082,0.025,0.128c0.003,0.05-0.001,0.1-0.012,0.157c-0.011,0.057-0.03,0.112-0.055,0.169
	c-0.037,0.077-0.083,0.146-0.14,0.202c-0.057,0.058-0.124,0.104-0.201,0.132c-0.077,0.032-0.163,0.042-0.256,0.034
	c-0.092-0.008-0.182-0.032-0.269-0.072c-0.123-0.057-0.229-0.131-0.317-0.229c-0.089-0.096-0.148-0.204-0.177-0.325
	c-0.03-0.123-0.035-0.239-0.013-0.353c0.02-0.112,0.06-0.232,0.117-0.354c0.033-0.068,0.073-0.145,0.122-0.226
	c0.05-0.084,0.12-0.192,0.213-0.322l0.409,0.222l0.516,0.269l0.473,0.229c0.053,0.028,0.102,0.06,0.147,0.092
	c0.045,0.033,0.083,0.071,0.113,0.111c0.029,0.042,0.052,0.086,0.066,0.137c0.016,0.049,0.022,0.1,0.021,0.151
	c-0.001,0.053-0.011,0.116-0.03,0.187c-0.018,0.071-0.044,0.143-0.08,0.22c-0.037,0.078-0.085,0.168-0.143,0.263
	c-0.059,0.098-0.13,0.198-0.216,0.306L43.811,33.015L43.811,33.015z M42.889,31.431c-0.051,0.069-0.092,0.138-0.123,0.2
	c-0.053,0.114-0.077,0.218-0.069,0.312c0.008,0.094,0.042,0.179,0.105,0.255c0.062,0.079,0.138,0.136,0.228,0.181
	c0.067,0.028,0.134,0.046,0.203,0.046c0.068,0.001,0.13-0.016,0.184-0.055c0.054-0.039,0.095-0.089,0.125-0.154
	c0.021-0.045,0.033-0.09,0.037-0.135c0.004-0.046-0.001-0.092-0.016-0.136c-0.014-0.046-0.038-0.09-0.071-0.132
	c-0.032-0.044-0.073-0.084-0.123-0.119c-0.05-0.034-0.115-0.073-0.194-0.115C43.095,31.534,43,31.486,42.889,31.431L42.889,31.431z
	 M44.471,30.127c0.045,0.031,0.13,0.085,0.255,0.164c-0.015,0.083-0.028,0.146-0.043,0.19c-0.014,0.044-0.029,0.085-0.044,0.124
	c-0.028,0.064-0.06,0.121-0.094,0.168c-0.034,0.048-0.075,0.081-0.121,0.103c-0.047,0.019-0.094,0.027-0.142,0.021
	c-0.048-0.006-0.095-0.017-0.141-0.036c-0.011-0.006-0.027-0.013-0.046-0.022c-0.02-0.009-0.082-0.039-0.188-0.09l-0.55-0.264
	l-0.082,0.191c-0.052-0.025-0.137-0.066-0.256-0.119l0.086-0.202c-0.05-0.027-0.137-0.068-0.259-0.126l0.035-0.17
	c0.008-0.035,0.02-0.105,0.037-0.209c0.119,0.058,0.232,0.108,0.338,0.153l0.145-0.338c0.119,0.056,0.205,0.095,0.257,0.116
	l-0.145,0.34c0.359,0.171,0.568,0.269,0.625,0.293c0.056,0.023,0.102,0.035,0.137,0.035c0.037,0.002,0.067-0.009,0.092-0.029
	c0.024-0.022,0.043-0.046,0.056-0.079c0.01-0.021,0.018-0.045,0.024-0.071C44.453,30.243,44.461,30.196,44.471,30.127L44.471,30.127
	z M44.898,29.853c-0.153-0.063-0.431-0.169-0.833-0.319c-0.401-0.148-0.751-0.271-1.046-0.371c0.033-0.095,0.057-0.163,0.069-0.203
	c0.018-0.055,0.038-0.121,0.062-0.2l0.5,0.195l1.122,0.407l0.258,0.088c-0.027,0.075-0.048,0.138-0.065,0.191
	C44.958,29.659,44.937,29.729,44.898,29.853L44.898,29.853z M45.267,27.558c0.052,0.027,0.146,0.072,0.285,0.134
	c-0.007,0.107-0.017,0.195-0.028,0.265c-0.013,0.072-0.029,0.141-0.049,0.211c-0.035,0.122-0.078,0.227-0.13,0.315
	c-0.052,0.09-0.121,0.162-0.208,0.217c-0.086,0.054-0.182,0.084-0.286,0.093c-0.105,0.008-0.21-0.003-0.314-0.033
	c-0.116-0.032-0.222-0.083-0.319-0.153c-0.098-0.07-0.17-0.152-0.219-0.243c-0.048-0.091-0.073-0.187-0.076-0.286
	s0.011-0.201,0.04-0.301c0.026-0.094,0.065-0.18,0.113-0.259c0.049-0.08,0.108-0.141,0.179-0.184
	c0.072-0.042,0.15-0.068,0.236-0.078c0.085-0.009,0.175-0.001,0.27,0.024c0.044,0.013,0.088,0.03,0.133,0.052L44.6,28.355
	c0.034,0.012,0.062,0.021,0.083,0.027c0.063,0.017,0.124,0.023,0.182,0.016c0.059-0.006,0.113-0.025,0.161-0.055
	c0.049-0.032,0.09-0.072,0.123-0.124c0.034-0.052,0.058-0.105,0.074-0.16c0.019-0.064,0.032-0.136,0.039-0.214
	C45.27,27.766,45.271,27.67,45.267,27.558L45.267,27.558z M44.438,28.299l0.188-0.652c-0.045-0.012-0.079-0.02-0.102-0.023
	c-0.022-0.002-0.049-0.003-0.08-0.002c-0.031,0.002-0.059,0.009-0.084,0.02c-0.026,0.01-0.049,0.025-0.069,0.044
	c-0.021,0.019-0.04,0.041-0.055,0.068c-0.016,0.026-0.029,0.056-0.039,0.09c-0.011,0.039-0.015,0.078-0.014,0.119
	c0.002,0.04,0.01,0.079,0.025,0.116c0.015,0.038,0.034,0.069,0.058,0.097c0.024,0.028,0.048,0.049,0.072,0.066
	S44.396,28.276,44.438,28.299L44.438,28.299z M45.693,27.083c-0.069-0.016-0.197-0.045-0.385-0.088l0.044-0.214
	c0.003-0.019,0.015-0.081,0.033-0.187c0.07,0.018,0.139,0.035,0.21,0.051l0.173,0.042l-0.038,0.186
	C45.729,26.879,45.716,26.95,45.693,27.083L45.693,27.083z M45.695,24.929c0.04,0.009,0.083,0.021,0.133,0.037
	c0.049,0.016,0.111,0.034,0.184,0.053c0.016,0.14,0.016,0.278,0,0.41c-0.009,0.078-0.025,0.152-0.048,0.222
	c-0.023,0.07-0.057,0.133-0.102,0.191c-0.045,0.057-0.101,0.106-0.167,0.146c-0.067,0.04-0.146,0.066-0.235,0.079
	c-0.09,0.013-0.181,0.014-0.273,0.004c-0.123-0.014-0.238-0.048-0.345-0.1c-0.108-0.051-0.194-0.12-0.256-0.202
	s-0.101-0.171-0.115-0.266c-0.015-0.095-0.016-0.198-0.002-0.311c0.008-0.061,0.019-0.125,0.035-0.19
	c0.015-0.064,0.039-0.142,0.073-0.229l0.322,0.016c-0.067,0.137-0.107,0.259-0.119,0.364c-0.008,0.066-0.004,0.128,0.01,0.189
	c0.016,0.061,0.045,0.115,0.089,0.162c0.042,0.047,0.095,0.083,0.155,0.108c0.061,0.025,0.125,0.042,0.19,0.05
	c0.093,0.01,0.174,0.006,0.245-0.015c0.071-0.02,0.129-0.062,0.174-0.127c0.046-0.064,0.074-0.142,0.084-0.229
	c0.005-0.043,0.006-0.097,0.002-0.16C45.723,25.068,45.712,25.001,45.695,24.929L45.695,24.929z M44.641,23.623
	c0.003-0.112,0.023-0.218,0.061-0.317c0.036-0.102,0.089-0.186,0.157-0.255c0.068-0.068,0.15-0.12,0.247-0.152
	c0.096-0.033,0.197-0.047,0.302-0.044c0.113,0.003,0.219,0.025,0.322,0.066c0.102,0.042,0.19,0.098,0.264,0.172
	c0.074,0.074,0.127,0.165,0.161,0.272c0.034,0.107,0.05,0.222,0.046,0.343c-0.003,0.112-0.024,0.216-0.061,0.317
	c-0.037,0.1-0.09,0.184-0.16,0.253c-0.069,0.07-0.153,0.121-0.251,0.155c-0.099,0.034-0.2,0.05-0.306,0.046
	c-0.107-0.003-0.21-0.023-0.306-0.06c-0.097-0.038-0.183-0.093-0.257-0.167c-0.074-0.074-0.129-0.168-0.168-0.281
	C44.654,23.858,44.637,23.741,44.641,23.623L44.641,23.623z M44.943,23.631c-0.003,0.084,0.015,0.16,0.055,0.227
	c0.04,0.067,0.1,0.119,0.182,0.154c0.081,0.034,0.17,0.053,0.267,0.056c0.085,0.003,0.161-0.008,0.229-0.033
	c0.067-0.024,0.123-0.066,0.166-0.125c0.042-0.059,0.065-0.129,0.068-0.213c0.002-0.085-0.016-0.16-0.056-0.226
	c-0.041-0.065-0.102-0.115-0.183-0.15c-0.082-0.036-0.172-0.054-0.272-0.057c-0.082-0.003-0.155,0.007-0.223,0.031
	c-0.067,0.023-0.122,0.063-0.164,0.122C44.968,23.475,44.945,23.546,44.943,23.631L44.943,23.631z M46.214,22.387
	c-0.167-0.008-0.416-0.012-0.747-0.014c-0.331-0.002-0.58,0-0.747,0.006c-0.001-0.082-0.002-0.148-0.004-0.199
	c-0.002-0.059-0.005-0.123-0.01-0.191l0.236,0.001c-0.047-0.028-0.085-0.055-0.116-0.08c-0.03-0.025-0.057-0.057-0.083-0.097
	c-0.026-0.039-0.046-0.086-0.063-0.14c-0.017-0.054-0.026-0.11-0.028-0.167c-0.001-0.043,0-0.085,0.007-0.126
	c0.007-0.041,0.017-0.078,0.032-0.112c0.014-0.034,0.03-0.063,0.048-0.087c0.019-0.025,0.04-0.045,0.063-0.063
	c0.023-0.017,0.058-0.036,0.104-0.058c-0.035-0.02-0.064-0.038-0.088-0.055c-0.024-0.016-0.048-0.04-0.074-0.068
	s-0.047-0.061-0.066-0.098c-0.019-0.036-0.033-0.076-0.043-0.122c-0.011-0.045-0.018-0.093-0.02-0.142
	c-0.003-0.083,0.008-0.163,0.032-0.239c0.024-0.075,0.067-0.135,0.125-0.18c0.058-0.045,0.132-0.069,0.221-0.072
	c0.047-0.002,0.116-0.001,0.207,0.002c0.092,0.003,0.24,0.006,0.446,0.008c0.206,0.001,0.365,0,0.478-0.003
	c0,0.07,0.002,0.132,0.004,0.187c0.002,0.064,0.006,0.138,0.012,0.224c-0.127-0.004-0.259-0.007-0.397-0.01l-0.336-0.004
	c-0.085-0.001-0.157-0.001-0.216,0.001c-0.069,0.002-0.123,0.015-0.157,0.038c-0.035,0.023-0.059,0.052-0.073,0.085
	c-0.014,0.034-0.021,0.072-0.019,0.113c0.001,0.043,0.012,0.083,0.03,0.117c0.017,0.034,0.045,0.066,0.084,0.095
	s0.083,0.051,0.133,0.064c0.05,0.015,0.121,0.024,0.21,0.029c0.09,0.004,0.207,0.006,0.353,0.005l0.408-0.005
	c0.001,0.08,0.003,0.146,0.005,0.2s0.006,0.123,0.011,0.212c-0.075-0.003-0.229-0.007-0.462-0.012
	c-0.233-0.003-0.39-0.004-0.471-0.001c-0.043,0.002-0.08,0.007-0.109,0.015c-0.029,0.007-0.058,0.022-0.083,0.044
	c-0.026,0.021-0.045,0.046-0.057,0.075s-0.016,0.061-0.015,0.098c0.003,0.067,0.027,0.125,0.074,0.175
	c0.047,0.049,0.109,0.084,0.185,0.105c0.076,0.021,0.224,0.031,0.441,0.034s0.391,0.001,0.519-0.004
	c0.001,0.088,0.003,0.156,0.005,0.201C46.205,22.225,46.208,22.295,46.214,22.387L46.214,22.387z M8.787,5.012
	c7.86-6.793,19.01-7.506,27.542-2.53c-3.848,3.41-6.113,6.196-10.087,10.741c-1.281,1.465-4.046,4.601-4.523,6.018
	c-0.322,0.957-0.913,4.928-1.39,5.341c-1.093,0.944-3.407-1.85-4.819-2.567c-2.721-1.382-11.967-5.034-14.43-3.389
	C1.949,13.528,4.538,8.683,8.787,5.012L8.787,5.012z M45.334,11.941c4.792,9.258,2.815,20.884-5.472,28.047
	c-9.792,8.46-24.69,7.491-33.271-2.165c-4.348-4.896-6.239-11.081-5.773-17.095c0.552,1.495,1.936,3.333,2.788,4.293
	c2.58,2.903,5.434,5.67,8.798,7.726c0.868,0.53,5.42,3.039,5.909,3.59c1.273,1.434-0.058,6.702,0.097,6.875
	c0.225,0.255,1.638,0.606,1.979,0.563c-0.274-2.078,0.805-6.294-1.311-8.244c-2.141-1.975-7.316-4.238-10.17-7.45
	c-0.928-1.044-5.252-5.333-3.683-6.688c0.978-0.845,7.564,1.894,8.956,2.445c4.097,1.621,5.064,5.363,8.595,7.86
	c1.652-1.686-1.257-9.396,1.363-12.299c3.687-4.3,6.764-8.416,10.932-12.017c1.13-0.977,3.944-3.191,4.795-2.233
	c1.604,1.806,1.372,7.91,0.992,9.908c-0.677,3.566-1.19,5.983-2.802,9.49c-1.465,3.188-3.763,6.363-6.17,9.44
	c-3.068,3.926-3.236,5.478-4.599,10.051c0.517,0.138,1.371-0.177,2.167-0.414c0.32-2.124,0.377-4.724,1.747-6.578
	c1.62-2.04,1.876-2.504,3.36-4.411c2.897-3.724,4.79-6.636,6.877-10.414C42.451,20.391,44.14,16.199,45.334,11.941L45.334,11.941z
	 M10.522,16.816c-1.731-0.979,1.544-4.571,3.158-5.747c4.577-3.335,9.251-2.308,10.298-1.174c0.305,0.331,0.424,0.875,0.22,1.319
	c-1.039,2.255-4.929-1.265-9.495,2.076C12.434,15.267,11.943,17.364,10.522,16.816L10.522,16.816z M6.318,15.355
	c-1.864-1.013-0.268-5.114,4.866-9.216c6.334-5.062,15.316-4.345,17.33-1.05c0.384,0.628,0.253,1.595-0.219,1.933
	c-1.834,1.309-4.619-0.82-8.394-0.72c-2.661,0.07-5.688,1.238-7.827,3.062C7.476,13.288,8.696,16.038,6.318,15.355L6.318,15.355z"/>
<linearGradient id="SVGID_2_" gradientUnits="userSpaceOnUse" x1="-38.6724" y1="180.8691" x2="-38.6724" y2="142.2508" gradientTransform="matrix(1 0 0 1 108.6724 -135.8691)">
	<stop  offset="0" style="stop-color:#EFEFEF"/>
	<stop  offset="0.2" style="stop-color:#EFEFEF"/>
	<stop  offset="0.34" style="stop-color:#FFFFFF"/>
	<stop  offset="0.38" style="stop-color:#FFFFFF"/>
	<stop  offset="0.39" style="stop-color:#EFEFEF"/>
	<stop  offset="0.54" style="stop-color:#FFFFFF"/>
	<stop  offset="0.7737" style="stop-color:#FFFFFF"/>
	<stop  offset="0.8889" style="stop-color:#FCFCFC"/>
	<stop  offset="0.9814" style="stop-color:#F2F2F2"/>
	<stop  offset="1" style="stop-color:#EFEFEF"/>
</linearGradient>
<path fill-rule="evenodd" clip-rule="evenodd" fill="url(#SVGID_2_)" d="M15.09,16.692c-0.864-1,0.489-2.304,1.305-2.597
	c1.013-0.365,1.904-0.281,2.518,0.523c0.558,0.731,0.186,1.748-0.759,2.337C17.134,17.593,15.85,17.571,15.09,16.692L15.09,16.692z
	 M48.644,40.047c0.281-1.263,0.575-2.525,0.86-3.785c0.286-1.263,0.589-2.527,0.879-3.792c0.495-2.478,0.981-4.959,1.476-7.437
	c0.496-2.482,1.009-4.957,1.514-7.441c0.123-0.599,0.253-1.482,0.449-2.647c1.542,0.023,2.86,0.036,3.954,0.036
	c0.682,0,1.748-0.011,3.197-0.036c1.429-0.024,2.448-0.04,3.056-0.04c2.056,0,3.738,0.167,5.075,0.477
	c1.018,0.236,1.917,0.646,2.701,1.239c0.768,0.581,1.429,1.35,1.953,2.303c0.523,0.949,0.846,1.996,0.982,3.138
	c0.163,1.376,0.112,2.805-0.14,4.3c-0.346,2.047-1.06,4.009-2.093,5.895c-1.032,1.882-2.381,3.456-4.01,4.711
	c-1.633,1.257-3.354,2.084-5.196,2.485c-1.822,0.396-3.822,0.601-5.99,0.595c-1.692-0.006-3.384-0.025-5.085-0.036
	C51.896,40.009,50.7,40.023,48.644,40.047L48.644,40.047z M52.542,37.58c1.486,0.038,2.869,0.058,4.149,0.058
	c1.066,0,2.168-0.054,3.309-0.158c1.131-0.104,2.159-0.295,3.093-0.578c0.926-0.281,1.883-0.798,2.851-1.519
	c0.986-0.734,1.824-1.556,2.523-2.479c0.703-0.93,1.29-1.961,1.757-3.107c0.468-1.146,0.788-2.312,0.981-3.492
	c0.217-1.319,0.28-2.548,0.122-3.67c-0.16-1.132-0.57-2.149-1.243-3.058c-0.672-0.905-1.561-1.508-2.636-1.808
	c-1.083-0.301-2.561-0.451-4.431-0.451c-2.299,0-4.392,0.018-6.29,0.054c-0.71,3.368-1.397,6.738-2.094,10.105
	C53.938,30.846,53.233,34.213,52.542,37.58L52.542,37.58z M91.927,25.979c2.103,0.013,3.73,0.021,4.87,0.021
	c1.216,0,2.58-0.008,4.094-0.021c-0.458,1.834-0.945,3.857-1.439,6.069c-0.495,2.214-1.009,4.619-1.533,7.209
	c-3.822,0.798-7.057,1.191-9.673,1.191c-1.934,0-3.738-0.249-5.42-0.752c-1.683-0.503-3.057-1.269-4.094-2.297
	c-1.038-1.032-1.716-2.355-2.056-3.975c-0.342-1.621-0.358-3.326-0.047-5.13c0.353-2.045,1.069-3.97,2.159-5.78
	c1.088-1.807,2.44-3.325,4.065-4.552c1.619-1.222,3.375-2.101,5.235-2.63c1.852-0.526,3.851-0.792,6-0.792
	c2.365,0,4.935,0.316,7.72,0.938c-0.14,0.923-0.251,1.915-0.355,2.983c-1.608-0.568-3.028-0.956-4.234-1.169
	c-1.215-0.215-2.355-0.321-3.402-0.321c-1.663,0-3.28,0.254-4.86,0.749c-1.587,0.498-2.995,1.249-4.252,2.278
	c-1.246,1.019-2.259,2.287-3.075,3.792c-0.82,1.514-1.37,3.07-1.646,4.668c-0.248,1.438-0.247,2.781-0.018,4.036
	c0.229,1.257,0.728,2.288,1.486,3.084c0.755,0.792,1.739,1.407,2.973,1.828c1.234,0.42,2.598,0.634,4.121,0.634
	c0.832,0,1.832-0.08,3-0.233c1.178-0.154,2.383-0.406,3.617-0.776c0.308-1.45,0.641-2.899,0.954-4.346
	c0.313-1.449,0.645-2.899,0.962-4.351c-0.579,0-1.149,0-1.72,0c-1.15,0-2.478,0.031-3.972,0.094
	C91.619,27.543,91.796,26.728,91.927,25.979L91.927,25.979z M111.629,37.618c-0.233,0.602-0.533,1.4-0.869,2.393
	c-0.861,0.194-1.543,0.315-2.038,0.362c-0.506,0.048-0.973,0.075-1.403,0.075c-1.094,0-1.934-0.138-2.542-0.413
	c-0.618-0.277-1.042-0.719-1.291-1.326c-0.247-0.603-0.275-1.428-0.083-2.47c0.024-0.132,0.073-0.372,0.149-0.72
	c0.074-0.344,0.354-1.536,0.831-3.582c0.319-1.37,0.645-2.747,0.962-4.117c0.318-1.37,0.637-2.746,0.973-4.119
	c-0.822,0-1.636,0-2.449,0c0.149-0.516,0.328-1.249,0.533-2.21c0.832,0,1.654,0,2.496,0c0.187-0.684,0.467-1.857,0.822-3.516
	c1.197-0.221,2.214-0.433,3.048-0.627c-0.421,1.813-0.73,3.194-0.907,4.143c1.701,0,3.402,0,5.112,0
	c-0.205,0.772-0.383,1.513-0.522,2.21c-1.702,0-3.402,0-5.095,0c-0.401,1.725-0.791,3.454-1.186,5.176
	c-0.397,1.725-0.785,3.449-1.179,5.173c-0.056,0.264-0.119,0.528-0.167,0.794c-0.166,0.889-0.195,1.563-0.075,2.009
	c0.124,0.455,0.375,0.771,0.738,0.966c0.364,0.192,0.776,0.295,1.206,0.295c0.298,0,0.635-0.027,0.991-0.075
	C110.05,37.988,110.704,37.851,111.629,37.618L111.629,37.618z M112.958,40.047c0.476-1.889,0.975-3.951,1.503-6.188
	c0.529-2.235,1.101-4.649,1.692-7.241c0.428-1.877,0.837-3.791,1.252-5.736c0.416-1.947,0.842-3.925,1.253-5.938
	c0.569,0.008,1.14,0.015,1.71,0.018c0.364,0.002,0.907-0.008,1.636-0.018c-0.431,1.8-0.879,3.601-1.299,5.399
	c-0.42,1.798-0.85,3.599-1.281,5.396c-0.402,1.821-0.812,3.646-1.215,5.464c-0.401,1.819-0.812,3.641-1.205,5.459
	c-0.244,1.129-0.468,2.257-0.701,3.384c-0.72-0.023-1.253-0.036-1.589-0.036C114.555,40.011,113.966,40.023,112.958,40.047
	L112.958,40.047z M136.089,37.115c-0.271,0.681-0.58,1.541-0.934,2.581c-1.215,0.295-2.271,0.494-3.15,0.596
	c-0.879,0.104-1.748,0.156-2.589,0.156c-1.523,0-2.869-0.183-4.009-0.552c-1.131-0.364-2.055-1.004-2.748-1.92
	c-0.691-0.913-1.127-1.958-1.28-3.132c-0.156-1.182-0.116-2.427,0.13-3.737c0.343-1.826,1.009-3.52,2-5.085
	c0.991-1.562,2.264-2.789,3.833-3.684c1.57-0.896,3.438-1.344,5.588-1.344c1.112,0,2.157,0.17,3.103,0.49
	c0.97,0.328,1.721,0.815,2.262,1.477c0.543,0.666,0.906,1.484,1.085,2.461c0.177,0.974,0.16,2.033-0.057,3.19
	c-0.082,0.437-0.205,0.87-0.365,1.285c-4.655,0-9.317,0-13.972,0c-0.178,0.675-0.299,1.187-0.365,1.544
	c-0.242,1.289-0.199,2.478,0.131,3.556c0.333,1.089,0.973,1.904,1.916,2.466c0.936,0.559,2.094,0.834,3.458,0.834
	C131.696,38.295,133.677,37.901,136.089,37.115L136.089,37.115z M125.416,28.372c3.634,0,7.28,0,10.916,0
	c0.141-0.774,0.225-1.375,0.215-1.802c-0.01-0.433-0.089-0.879-0.225-1.337c-0.135-0.46-0.392-0.861-0.719-1.191
	c-0.337-0.34-0.769-0.594-1.29-0.772c-0.525-0.179-1.112-0.272-1.757-0.272c-0.692,0-1.382,0.105-2.038,0.296
	c-0.681,0.198-1.286,0.472-1.822,0.811c-0.556,0.352-1.049,0.744-1.477,1.205c-0.422,0.457-0.744,0.906-0.99,1.332
	C125.979,27.073,125.706,27.65,125.416,28.372L125.416,28.372z M62.786,7.988c0.387-0.566,0.787-1.131,1.18-1.699
	c0.391-0.564,0.784-1.133,1.181-1.699c-0.839,0-1.674,0-2.513,0c-0.346,0.719-0.696,1.437-1.046,2.155c-0.124,0-0.249,0-0.374,0
	c0.3-0.614,0.602-1.23,0.895-1.844c0.292-0.615,0.599-1.23,0.903-1.845c0.139,0,0.277,0,0.415,0c-0.198,0.386-0.387,0.772-0.58,1.16
	c1.069,0,2.144,0,3.217,0c-0.028,0.125-0.055,0.25-0.083,0.374c-0.139,0-0.282,0-0.42,0c-0.433,0.629-0.874,1.259-1.305,1.886
	c-0.431,0.629-0.866,1.257-1.299,1.885c0.249,0.546,0.5,1.093,0.747,1.638c0.247,0.546,0.503,1.091,0.756,1.637
	c-0.157,0-0.309,0-0.457,0c-0.23-0.484-0.452-0.967-0.673-1.45c-0.221-0.483-0.443-0.968-0.664-1.452
	c-0.364,0.484-0.73,0.968-1.093,1.452c-0.361,0.482-0.714,0.966-1.073,1.45c-0.144,0-0.277,0-0.416,0
	c0.396-0.539,0.798-1.079,1.194-1.617c0.396-0.539,0.807-1.078,1.212-1.618c-0.263-0.567-0.517-1.133-0.77-1.7
	c0.152,0,0.304,0,0.461,0C62.385,7.131,62.578,7.56,62.786,7.988L62.786,7.988z M57.797,10.227c0.692,0.304,1.369,0.608,2.061,0.911
	c-0.033,0.139-0.065,0.278-0.093,0.416c-0.788-0.359-1.571-0.719-2.351-1.079c-0.585,0.401-1.171,0.802-1.756,1.202
	c-0.198,0-0.392,0-0.585,0c0.655-0.455,1.305-0.911,1.955-1.367c-0.336-0.166-0.677-0.332-1.01-0.499
	c0.282-0.359,0.562-0.717,0.849-1.077c-0.42,0-0.839,0-1.254,0c0.028-0.124,0.056-0.249,0.079-0.373c0.475,0,0.945,0,1.425,0
	c0.161-0.208,0.332-0.415,0.507-0.623c0.138,0,0.276,0,0.419,0c-0.162,0.208-0.318,0.415-0.47,0.623c0.986,0,1.973,0,2.959,0
	C59.619,8.983,58.71,9.606,57.797,10.227L57.797,10.227z M59.683,4.919c-0.18,0-0.359,0-0.543,0c0.027,0,0.055,0,0.083,0
	c-0.018,0.084-0.037,0.167-0.05,0.25c0.751,0,1.503,0,2.259,0c-0.028,0.124-0.055,0.248-0.078,0.372c-0.756,0-1.507,0-2.259,0
	c-0.156,0.733-0.309,1.465-0.47,2.197c-0.138,0-0.282,0-0.419,0c0.161-0.731,0.313-1.464,0.47-2.197c-0.779,0-1.558,0-2.336,0
	c0.022-0.125,0.05-0.248,0.078-0.372c0.779,0,1.559,0,2.337,0c0.014-0.083,0.032-0.166,0.05-0.249c-0.151,0-0.309,0-0.456,0
	c-0.466-0.594-0.917-1.188-1.378-1.783c0.185,0,0.364,0,0.544,0c0.438,0.566,0.876,1.134,1.304,1.699
	c0.134-0.58,0.254-1.161,0.378-1.742c0.139,0,0.277,0,0.42,0c-0.125,0.581-0.245,1.162-0.378,1.742
	c0.682-0.565,1.364-1.133,2.042-1.699c0.18,0,0.36,0,0.544,0C61.107,3.733,60.393,4.327,59.683,4.919L59.683,4.919z M56.59,9.646
	c0.277,0.139,0.553,0.276,0.83,0.414c0.659-0.441,1.327-0.884,1.991-1.326c-0.71,0-1.42,0-2.125,0
	C57.055,9.038,56.821,9.343,56.59,9.646L56.59,9.646z M58.701,5.792c-0.807,0.663-1.613,1.327-2.42,1.989c-0.18,0-0.364,0-0.544,0
	c0.806-0.662,1.618-1.326,2.42-1.989C58.341,5.792,58.521,5.792,58.701,5.792L58.701,5.792z M59.001,5.792c0.175,0,0.354,0,0.535,0
	c0.457,0.663,0.913,1.327,1.374,1.989c-0.18,0-0.36,0-0.544,0C59.909,7.119,59.458,6.455,59.001,5.792L59.001,5.792z M72.368,8.361
	c1.622,0,3.25,0,4.877,0c0.054-0.249,0.11-0.498,0.165-0.746c0.793-0.581,1.59-1.16,2.389-1.74c-1.715,0-3.431,0-5.14,0
	c0.028-0.124,0.055-0.249,0.083-0.374c2.056,0,4.117,0,6.181,0c-0.014,0.014-0.033,0.027-0.046,0.041
	c-0.521,0.374-1.038,0.749-1.549,1.12c-0.51,0.372-1.022,0.747-1.535,1.119c-0.042,0.194-0.089,0.387-0.129,0.581
	c1.277,0,2.555,0,3.835,0c-0.027,0.125-0.055,0.25-0.083,0.373c-1.281,0-2.557,0-3.834,0c-0.102,0.484-0.213,0.969-0.318,1.452
	c-0.105,0.482-0.211,0.966-0.317,1.45c-0.946,0-1.891,0-2.832,0c-0.073-0.125-0.147-0.248-0.216-0.373c0.903,0,1.807,0,2.71,0
	c0.092-0.421,0.185-0.842,0.276-1.264c0.094-0.421,0.19-0.844,0.278-1.266c-1.628,0-3.255,0-4.877,0
	C72.313,8.611,72.341,8.486,72.368,8.361L72.368,8.361z M78.158,2.889c0.133,0.222,0.268,0.443,0.396,0.664c1.281,0,2.563,0,3.845,0
	c-0.089,0.387-0.181,0.774-0.263,1.162c-0.083,0.385-0.167,0.774-0.254,1.161c-0.141,0-0.28,0-0.415,0
	c0.144-0.65,0.287-1.298,0.429-1.949c-2.646,0-5.297,0-7.938,0c-0.143,0.651-0.281,1.299-0.424,1.949c-0.143,0-0.286,0-0.419,0
	c0.083-0.387,0.167-0.776,0.248-1.161c0.083-0.387,0.171-0.774,0.258-1.162c1.476,0,2.956,0,4.431,0
	c-0.12-0.221-0.241-0.442-0.355-0.664C77.848,2.889,78.001,2.889,78.158,2.889L78.158,2.889z M97.875,5.459c-2.5,0-4.988,0-7.482,0
	c-0.111,0.499-0.221,0.996-0.332,1.494c-0.111,0.497-0.222,0.995-0.333,1.492c-0.193,0.539-0.391,1.079-0.577,1.616
	c-0.185,0.537-0.373,1.078-0.557,1.616c-0.158,0-0.31,0-0.462,0c0.189-0.531,0.375-1.065,0.558-1.595
	c0.183-0.53,0.379-1.063,0.568-1.597c0.188-0.843,0.374-1.688,0.562-2.528c0.188-0.842,0.378-1.686,0.567-2.529
	c2.65,0,5.296,0,7.947,0C98.179,4.106,98.027,4.783,97.875,5.459L97.875,5.459z M90.486,5.045c2.337,0,4.679,0,7.024,0
	c0.093-0.413,0.184-0.828,0.282-1.243c-2.342,0-4.689,0-7.026,0C90.674,4.217,90.578,4.632,90.486,5.045L90.486,5.045z
	 M96.828,10.601c-0.106,0.359-0.212,0.718-0.317,1.076c-0.019,0-0.032,0-0.046,0c-1.407,0-2.803,0-4.205,0
	c0.111-0.497,0.221-0.995,0.333-1.492c-0.968,0.097-1.937,0.193-2.9,0.29c0.027-0.124,0.056-0.249,0.083-0.374
	c0.968-0.096,1.932-0.193,2.905-0.29c0.092-0.414,0.185-0.828,0.276-1.243c-0.782,0.056-1.557,0.111-2.332,0.166
	c0.032-0.138,0.065-0.276,0.097-0.414c0.774-0.055,1.549-0.11,2.327-0.166c0.093-0.401,0.181-0.802,0.272-1.203
	c-0.779,0.056-1.553,0.11-2.332,0.166c0.032-0.138,0.06-0.276,0.093-0.414c2.11-0.124,4.227-0.248,6.348-0.372
	C97.4,6.456,97.368,6.58,97.34,6.704c-1.203,0.083-2.401,0.165-3.601,0.248c-0.091,0.401-0.184,0.802-0.271,1.203
	c1.199-0.097,2.407-0.193,3.609-0.29c-0.027,0.124-0.061,0.248-0.083,0.37c-1.208,0.112-2.415,0.223-3.619,0.333
	c-0.088,0.401-0.18,0.801-0.267,1.2c1.42-0.138,2.839-0.276,4.259-0.414c-0.028,0.125-0.06,0.25-0.087,0.373
	c-1.42,0.139-2.84,0.278-4.26,0.416c-0.087,0.387-0.176,0.773-0.258,1.16c1.134,0,2.273,0,3.411,0
	c0.102-0.317,0.195-0.636,0.301-0.954C96.588,10.434,96.708,10.518,96.828,10.601L96.828,10.601z M113.916,9.148
	c-0.116,0.394-0.241,0.789-0.346,1.181c-0.105,0.39-0.221,0.787-0.332,1.181c-0.032,0-0.061,0-0.083,0c-2.697,0-5.39,0-8.081,0
	c0.309-1.36,0.623-2.724,0.932-4.082c0.308-1.357,0.621-2.721,0.935-4.082c2.618,0,5.241,0,7.864,0
	c-0.175,0.74-0.346,1.481-0.516,2.218c-0.17,0.737-0.34,1.478-0.516,2.217c-2.476,0-4.952,0-7.427,0
	c-0.128,0.56-0.26,1.123-0.387,1.68c-0.126,0.556-0.258,1.119-0.383,1.678c2.444,0,4.886,0,7.334,0
	c0.208-0.732,0.42-1.464,0.637-2.197C113.662,9.011,113.791,9.08,113.916,9.148L113.916,9.148z M110.951,3.719
	c-0.138,0.615-0.285,1.233-0.423,1.845c-0.139,0.611-0.28,1.229-0.423,1.844c1.11,0,2.226,0,3.337,0
	c0.143-0.615,0.289-1.232,0.429-1.844s0.286-1.23,0.429-1.845C113.183,3.719,112.067,3.719,110.951,3.719L110.951,3.719z
	 M109.685,7.408c0.143-0.615,0.286-1.233,0.424-1.844c0.138-0.612,0.285-1.23,0.423-1.845c-1.088,0-2.175,0-3.259,0
	c-0.138,0.615-0.283,1.233-0.418,1.845s-0.282,1.229-0.425,1.844C107.513,7.408,108.601,7.408,109.685,7.408L109.685,7.408z
	 M35.411,40.194l-0.433-0.326l-0.605-0.443l-0.219-0.154c0.063-0.041,0.12-0.077,0.172-0.112c0.049-0.033,0.1-0.067,0.153-0.105
	l0.896,0.699l-0.296-1.098c0.062-0.039,0.119-0.077,0.174-0.114c0.059-0.039,0.113-0.075,0.165-0.112l0.751,0.645
	c0.011,0.01,0.044,0.038,0.099,0.086l-0.027-0.096c0-0.002-0.005-0.025-0.016-0.071L36.089,38.4L36,38.04
	c0.062-0.04,0.116-0.075,0.16-0.104c0.036-0.025,0.091-0.062,0.163-0.111l0.185,0.965c0.039,0.207,0.079,0.405,0.12,0.593
	c-0.069,0.044-0.122,0.079-0.161,0.104c-0.041,0.026-0.101,0.069-0.183,0.125l-0.82-0.713c0.009,0.039,0.031,0.12,0.064,0.242
	l0.217,0.829c-0.069,0.045-0.122,0.079-0.157,0.103C35.547,40.1,35.488,40.138,35.411,40.194L35.411,40.194z M37.701,38.592
	l-0.466-0.28l-0.648-0.377l-0.234-0.133c0.058-0.046,0.112-0.089,0.16-0.127c0.045-0.039,0.092-0.08,0.141-0.122l0.966,0.605
	l-0.412-1.064c0.057-0.043,0.111-0.086,0.161-0.129c0.054-0.044,0.104-0.087,0.151-0.129l0.816,0.563
	c0.012,0.01,0.047,0.034,0.106,0.077l-0.037-0.093c0-0.004-0.008-0.027-0.023-0.069l-0.198-0.573l-0.127-0.351
	c0.059-0.047,0.108-0.085,0.148-0.119c0.034-0.027,0.084-0.069,0.15-0.127l0.286,0.939c0.062,0.203,0.122,0.395,0.184,0.577
	c-0.064,0.05-0.114,0.091-0.149,0.119c-0.037,0.031-0.093,0.08-0.168,0.145l-0.892-0.626c0.013,0.036,0.043,0.115,0.089,0.234
	l0.305,0.802c-0.064,0.053-0.113,0.091-0.146,0.118C37.826,38.484,37.772,38.53,37.701,38.592L37.701,38.592z M39.797,36.718
	l-0.501-0.213l-0.696-0.287l-0.251-0.099c0.052-0.055,0.098-0.103,0.139-0.148c0.04-0.043,0.081-0.091,0.123-0.139l1.043,0.468
	l-0.559-0.998c0.05-0.052,0.097-0.103,0.141-0.15c0.047-0.051,0.091-0.1,0.131-0.148l0.889,0.447
	c0.012,0.008,0.051,0.026,0.116,0.062l-0.05-0.088c-0.001-0.002-0.012-0.023-0.033-0.064l-0.278-0.542l-0.175-0.329
	c0.051-0.052,0.095-0.099,0.13-0.137c0.029-0.033,0.073-0.082,0.13-0.148l0.417,0.892c0.089,0.193,0.177,0.374,0.263,0.548
	c-0.055,0.061-0.099,0.106-0.13,0.14c-0.033,0.036-0.081,0.09-0.146,0.165l-0.972-0.499c0.019,0.034,0.059,0.109,0.123,0.222
	l0.416,0.752c-0.057,0.06-0.1,0.105-0.128,0.137C39.906,36.594,39.858,36.647,39.797,36.718L39.797,36.718z M41.375,34.866
	c-0.054-0.047-0.156-0.128-0.305-0.242l0.135-0.175c0.012-0.015,0.049-0.065,0.112-0.152c0.055,0.047,0.109,0.091,0.166,0.136
	l0.137,0.111l-0.117,0.148C41.499,34.698,41.456,34.756,41.375,34.866L41.375,34.866z M42.768,32.85
	c-0.046,0.066-0.081,0.118-0.105,0.155c-0.026,0.04-0.062,0.095-0.106,0.167l-0.207-0.146c0.024,0.065,0.04,0.117,0.048,0.16
	c0.009,0.04,0.012,0.087,0.009,0.139c-0.003,0.05-0.013,0.101-0.031,0.149c-0.018,0.051-0.042,0.099-0.073,0.147
	c-0.05,0.075-0.112,0.139-0.186,0.189c-0.072,0.048-0.15,0.08-0.233,0.094c-0.083,0.015-0.168,0.011-0.254-0.012
	c-0.086-0.023-0.169-0.06-0.247-0.107c-0.107-0.067-0.199-0.154-0.274-0.259c-0.076-0.104-0.122-0.212-0.139-0.32
	c-0.018-0.109-0.01-0.217,0.022-0.321c0.031-0.104,0.081-0.209,0.147-0.309c0.047-0.073,0.109-0.152,0.184-0.235
	c-0.103-0.073-0.212-0.146-0.33-0.22l-0.083-0.052c0.051-0.075,0.09-0.134,0.116-0.174c0.035-0.052,0.073-0.111,0.114-0.177
	c0.196,0.149,0.469,0.345,0.817,0.585C42.304,32.548,42.574,32.729,42.768,32.85L42.768,32.85z M41.548,32.501
	c-0.056,0.051-0.103,0.103-0.139,0.157c-0.042,0.064-0.073,0.13-0.093,0.199s-0.022,0.142-0.009,0.212
	c0.015,0.071,0.047,0.141,0.1,0.208c0.052,0.068,0.11,0.12,0.173,0.161c0.063,0.037,0.127,0.062,0.195,0.074
	c0.067,0.012,0.131,0.004,0.192-0.023c0.061-0.029,0.11-0.07,0.148-0.128c0.029-0.045,0.047-0.091,0.055-0.138
	c0.008-0.044,0.005-0.095-0.009-0.145c-0.014-0.05-0.041-0.102-0.079-0.156c-0.039-0.054-0.1-0.111-0.18-0.176
	C41.843,32.701,41.724,32.621,41.548,32.501L41.548,32.501z M43.406,32.4c0.157-0.165,0.27-0.319,0.337-0.463
	c0.026-0.054,0.043-0.106,0.053-0.163c0.009-0.054,0.008-0.104-0.002-0.148c-0.011-0.045-0.034-0.087-0.07-0.126
	c-0.036-0.038-0.083-0.072-0.138-0.105c-0.056-0.032-0.143-0.077-0.261-0.135c0.031,0.054,0.053,0.103,0.066,0.141
	c0.014,0.039,0.022,0.08,0.025,0.127c0.003,0.048-0.001,0.099-0.011,0.156c-0.011,0.057-0.03,0.112-0.056,0.166
	c-0.036,0.077-0.082,0.145-0.139,0.2c-0.056,0.059-0.124,0.103-0.2,0.132c-0.078,0.03-0.163,0.04-0.255,0.032
	c-0.093-0.008-0.182-0.03-0.267-0.071c-0.123-0.054-0.229-0.129-0.317-0.226c-0.087-0.094-0.147-0.202-0.176-0.322
	c-0.029-0.119-0.034-0.234-0.013-0.349c0.021-0.112,0.06-0.227,0.118-0.351c0.031-0.067,0.071-0.143,0.121-0.224
	c0.049-0.084,0.12-0.189,0.212-0.318l0.407,0.22l0.514,0.266l0.472,0.225c0.053,0.027,0.102,0.058,0.147,0.091
	c0.044,0.033,0.083,0.069,0.112,0.11c0.029,0.042,0.052,0.087,0.066,0.135c0.015,0.048,0.021,0.098,0.02,0.15
	c-0.001,0.052-0.011,0.113-0.029,0.186c-0.019,0.069-0.045,0.14-0.08,0.215c-0.037,0.077-0.084,0.166-0.143,0.261
	c-0.058,0.096-0.129,0.196-0.214,0.303L43.406,32.4L43.406,32.4z M42.488,30.836c-0.052,0.067-0.093,0.135-0.123,0.198
	c-0.053,0.111-0.076,0.214-0.069,0.309c0.007,0.093,0.042,0.175,0.104,0.252c0.062,0.075,0.138,0.136,0.228,0.176
	c0.066,0.029,0.134,0.047,0.202,0.047c0.069,0.002,0.129-0.016,0.183-0.055c0.053-0.038,0.095-0.089,0.124-0.152
	c0.021-0.044,0.033-0.089,0.038-0.133c0.004-0.044-0.001-0.088-0.016-0.133c-0.015-0.044-0.038-0.089-0.07-0.134
	c-0.032-0.042-0.072-0.081-0.122-0.115c-0.049-0.035-0.115-0.072-0.193-0.115C42.693,30.938,42.598,30.89,42.488,30.836
	L42.488,30.836z M44.064,29.544c0.045,0.03,0.13,0.085,0.254,0.163c-0.015,0.081-0.029,0.144-0.042,0.188
	c-0.013,0.043-0.028,0.083-0.044,0.122c-0.028,0.064-0.06,0.12-0.094,0.167c-0.035,0.046-0.076,0.079-0.122,0.101
	c-0.046,0.02-0.092,0.028-0.141,0.021c-0.047-0.005-0.095-0.017-0.141-0.036c-0.011-0.006-0.027-0.013-0.046-0.021
	c-0.019-0.008-0.082-0.04-0.187-0.09l-0.547-0.261l-0.082,0.191c-0.052-0.027-0.137-0.067-0.255-0.119l0.085-0.2
	c-0.05-0.027-0.137-0.068-0.259-0.125l0.036-0.168c0.008-0.035,0.02-0.104,0.036-0.207c0.119,0.056,0.231,0.106,0.336,0.151
	l0.145-0.336c0.118,0.056,0.204,0.094,0.255,0.116l-0.144,0.337c0.358,0.168,0.565,0.265,0.623,0.288
	c0.056,0.023,0.102,0.035,0.137,0.036s0.066-0.01,0.09-0.03c0.025-0.021,0.044-0.046,0.057-0.078
	c0.009-0.021,0.018-0.045,0.024-0.07C44.046,29.659,44.054,29.612,44.064,29.544L44.064,29.544z M44.49,29.274
	c-0.152-0.063-0.429-0.168-0.83-0.316c-0.4-0.146-0.748-0.269-1.042-0.366c0.032-0.093,0.055-0.161,0.068-0.201
	c0.018-0.053,0.039-0.12,0.062-0.197l0.497,0.192l1.118,0.403l0.257,0.087c-0.026,0.074-0.048,0.137-0.065,0.189
	C44.549,29.081,44.528,29.15,44.49,29.274L44.49,29.274z M44.857,27.003c0.051,0.027,0.146,0.071,0.283,0.133
	c-0.007,0.105-0.017,0.193-0.029,0.263c-0.012,0.07-0.028,0.14-0.048,0.208c-0.035,0.121-0.078,0.225-0.129,0.313
	c-0.053,0.088-0.121,0.159-0.207,0.212c-0.085,0.053-0.181,0.084-0.286,0.092c-0.104,0.008-0.208-0.002-0.313-0.031
	c-0.116-0.032-0.221-0.083-0.318-0.152c-0.097-0.07-0.17-0.149-0.218-0.24c-0.049-0.089-0.074-0.184-0.077-0.283
	c-0.002-0.099,0.011-0.197,0.04-0.297c0.027-0.094,0.064-0.179,0.113-0.257c0.048-0.078,0.108-0.139,0.179-0.18
	c0.071-0.043,0.149-0.068,0.234-0.078s0.175-0.002,0.269,0.024c0.044,0.012,0.087,0.03,0.132,0.051l-0.29,1.011
	c0.034,0.012,0.062,0.021,0.083,0.025c0.063,0.018,0.124,0.023,0.182,0.016c0.059-0.006,0.112-0.025,0.161-0.055
	c0.048-0.03,0.089-0.071,0.123-0.122s0.059-0.104,0.074-0.158c0.018-0.064,0.03-0.134,0.038-0.212
	C44.859,27.209,44.861,27.114,44.857,27.003L44.857,27.003z M44.031,27.735l0.188-0.644c-0.045-0.012-0.079-0.02-0.101-0.023
	c-0.022-0.003-0.049-0.004-0.08-0.002s-0.058,0.009-0.084,0.02s-0.049,0.025-0.069,0.043s-0.039,0.041-0.055,0.067
	c-0.016,0.027-0.028,0.057-0.038,0.091c-0.011,0.039-0.016,0.077-0.014,0.117s0.01,0.078,0.024,0.115
	c0.015,0.036,0.034,0.069,0.059,0.096c0.023,0.027,0.046,0.048,0.071,0.065C43.956,27.695,43.989,27.715,44.031,27.735
	L44.031,27.735z M45.281,26.535c-0.068-0.016-0.196-0.046-0.383-0.087l0.044-0.213c0.004-0.019,0.014-0.08,0.033-0.185
	c0.069,0.018,0.139,0.035,0.209,0.05l0.173,0.041l-0.039,0.184C45.318,26.332,45.305,26.403,45.281,26.535L45.281,26.535z
	 M45.284,24.402c0.039,0.009,0.083,0.021,0.132,0.037c0.049,0.015,0.11,0.033,0.185,0.052c0.016,0.138,0.015,0.274-0.001,0.407
	c-0.009,0.076-0.026,0.149-0.049,0.219c-0.023,0.069-0.057,0.133-0.102,0.188c-0.045,0.057-0.1,0.105-0.167,0.145
	c-0.067,0.04-0.145,0.066-0.234,0.079c-0.09,0.014-0.181,0.015-0.272,0.004c-0.122-0.014-0.237-0.047-0.345-0.098
	c-0.107-0.052-0.192-0.119-0.254-0.201c-0.062-0.083-0.101-0.17-0.115-0.264c-0.015-0.093-0.016-0.196-0.002-0.306
	c0.007-0.062,0.019-0.125,0.034-0.189c0.016-0.065,0.039-0.14,0.072-0.228l0.32,0.017c-0.066,0.135-0.105,0.255-0.118,0.361
	c-0.008,0.064-0.004,0.126,0.011,0.186c0.016,0.06,0.043,0.113,0.087,0.16c0.043,0.047,0.095,0.083,0.156,0.107
	c0.061,0.025,0.124,0.041,0.19,0.048c0.091,0.011,0.172,0.006,0.243-0.014c0.071-0.021,0.129-0.062,0.174-0.125
	c0.045-0.065,0.073-0.14,0.083-0.228c0.005-0.042,0.006-0.095,0.002-0.157C45.311,24.54,45.3,24.474,45.284,24.402L45.284,24.402z
	 M44.233,23.109c0.004-0.109,0.024-0.214,0.061-0.313c0.037-0.099,0.089-0.184,0.157-0.252c0.068-0.068,0.15-0.118,0.246-0.151
	c0.097-0.032,0.197-0.047,0.302-0.043c0.111,0.003,0.219,0.025,0.321,0.065c0.102,0.041,0.189,0.097,0.262,0.17
	c0.074,0.073,0.127,0.162,0.162,0.27c0.034,0.106,0.049,0.22,0.045,0.338c-0.003,0.111-0.023,0.216-0.06,0.314
	s-0.091,0.182-0.16,0.25c-0.07,0.068-0.153,0.12-0.25,0.153c-0.098,0.034-0.2,0.049-0.305,0.046
	c-0.107-0.002-0.208-0.023-0.305-0.059c-0.096-0.036-0.181-0.091-0.255-0.165c-0.073-0.073-0.129-0.167-0.168-0.277
	C44.247,23.343,44.229,23.229,44.233,23.109L44.233,23.109z M44.534,23.118c-0.002,0.083,0.015,0.159,0.055,0.225
	c0.04,0.067,0.1,0.118,0.181,0.153c0.081,0.033,0.169,0.053,0.266,0.055c0.084,0.002,0.161-0.008,0.228-0.033
	c0.067-0.023,0.122-0.065,0.164-0.124c0.043-0.058,0.066-0.128,0.068-0.21c0.002-0.084-0.016-0.159-0.057-0.223
	c-0.04-0.065-0.101-0.114-0.182-0.148s-0.171-0.054-0.271-0.057c-0.081-0.002-0.155,0.007-0.222,0.031
	c-0.067,0.023-0.122,0.062-0.164,0.12C44.559,22.964,44.537,23.036,44.534,23.118L44.534,23.118z M45.8,21.888
	c-0.166-0.007-0.414-0.012-0.744-0.014c-0.33-0.002-0.579,0-0.745,0.006c-0.001-0.082-0.003-0.147-0.005-0.197
	c-0.002-0.059-0.006-0.122-0.01-0.189l0.236,0.002c-0.047-0.029-0.085-0.056-0.116-0.08c-0.029-0.024-0.057-0.056-0.083-0.095
	c-0.026-0.039-0.047-0.085-0.063-0.138c-0.016-0.054-0.025-0.108-0.027-0.166c-0.002-0.043,0-0.085,0.007-0.125
	c0.007-0.041,0.017-0.078,0.03-0.111c0.014-0.034,0.03-0.062,0.049-0.087c0.019-0.023,0.04-0.044,0.063-0.062
	c0.022-0.017,0.057-0.036,0.104-0.057c-0.035-0.02-0.064-0.037-0.088-0.055c-0.023-0.017-0.048-0.039-0.073-0.068
	c-0.026-0.028-0.048-0.06-0.065-0.096c-0.018-0.036-0.033-0.076-0.043-0.121c-0.011-0.045-0.018-0.092-0.02-0.141
	c-0.003-0.082,0.008-0.161,0.032-0.235c0.025-0.075,0.067-0.134,0.125-0.178c0.058-0.044,0.131-0.068,0.22-0.072
	c0.047-0.002,0.115-0.001,0.207,0.002c0.09,0.003,0.239,0.005,0.444,0.007s0.364,0.001,0.477-0.002
	c0.001,0.069,0.002,0.131,0.004,0.185c0.002,0.063,0.006,0.136,0.012,0.221c-0.126-0.004-0.258-0.007-0.395-0.01l-0.336-0.004
	c-0.085-0.002-0.157-0.001-0.215,0.001c-0.069,0.002-0.122,0.016-0.156,0.038c-0.036,0.023-0.06,0.051-0.074,0.084
	c-0.014,0.034-0.02,0.071-0.018,0.112c0.002,0.043,0.012,0.082,0.029,0.115c0.018,0.035,0.046,0.066,0.085,0.094
	c0.038,0.029,0.083,0.05,0.133,0.064c0.05,0.015,0.119,0.023,0.208,0.028c0.09,0.004,0.207,0.006,0.352,0.005l0.407-0.005
	c0.001,0.08,0.003,0.146,0.005,0.198c0.002,0.053,0.006,0.123,0.012,0.21c-0.076-0.004-0.23-0.007-0.462-0.011
	c-0.232-0.003-0.389-0.004-0.47-0.001c-0.042,0.001-0.079,0.006-0.108,0.014c-0.03,0.008-0.057,0.023-0.083,0.044
	c-0.026,0.022-0.045,0.046-0.057,0.075c-0.011,0.027-0.017,0.06-0.015,0.096c0.002,0.067,0.027,0.125,0.075,0.173
	c0.046,0.048,0.108,0.083,0.184,0.104c0.076,0.021,0.223,0.032,0.439,0.035c0.217,0.001,0.39,0,0.517-0.005
	c0.001,0.088,0.003,0.154,0.005,0.199C45.792,21.728,45.794,21.798,45.8,21.888L45.8,21.888z M8.507,4.7
	c7.832-6.719,18.942-7.425,27.443-2.501c-3.834,3.373-6.091,6.128-10.051,10.625c-1.277,1.449-4.032,4.551-4.507,5.953
	c-0.321,0.946-0.91,4.875-1.385,5.283c-1.089,0.934-3.395-1.829-4.801-2.539c-2.711-1.368-11.924-4.98-14.378-3.353
	C1.693,13.125,4.273,8.332,8.507,4.7L8.507,4.7z M44.924,11.554c4.774,9.158,2.805,20.66-5.453,27.745
	C29.715,47.67,14.87,46.711,6.32,37.157c-4.333-4.842-6.216-10.96-5.752-16.91c0.549,1.479,1.928,3.297,2.778,4.247
	c2.57,2.872,5.415,5.61,8.767,7.643c0.865,0.525,5.4,3.007,5.888,3.553c1.269,1.416-0.058,6.628,0.097,6.802
	c0.224,0.25,1.631,0.598,1.971,0.556c-0.273-2.053,0.803-6.227-1.306-8.155c-2.133-1.955-7.291-4.193-10.134-7.371
	c-0.924-1.033-5.233-5.274-3.669-6.617c0.974-0.835,7.538,1.875,8.924,2.419c4.082,1.603,5.046,5.304,8.563,7.776
	c1.646-1.667-1.251-9.296,1.358-12.167c3.674-4.253,6.742-8.324,10.894-11.887c1.126-0.967,3.93-3.157,4.778-2.209
	c1.599,1.787,1.367,7.825,0.989,9.801c-0.674,3.527-1.186,5.919-2.792,9.388c-1.46,3.153-3.749,6.294-6.147,9.341
	c-3.058,3.881-3.225,5.419-4.583,9.941c0.516,0.135,1.366-0.174,2.159-0.409c0.32-2.101,0.377-4.674,1.741-6.509
	c1.614-2.019,1.87-2.478,3.348-4.364c2.887-3.684,4.773-6.563,6.852-10.3C42.052,19.913,43.734,15.767,44.924,11.554L44.924,11.554z
	 M10.237,16.377c-1.725-0.968,1.539-4.521,3.147-5.684c4.561-3.299,9.218-2.283,10.261-1.161c0.303,0.326,0.422,0.865,0.219,1.303
	c-1.035,2.231-4.911-1.251-9.46,2.055C12.141,14.844,11.653,16.919,10.237,16.377L10.237,16.377z M6.048,14.931
	c-1.858-1-0.267-5.058,4.848-9.116c6.312-5.007,15.261-4.299,17.268-1.039c0.383,0.622,0.252,1.578-0.219,1.912
	c-1.827,1.295-4.601-0.812-8.363-0.712C16.93,6.045,13.915,7.2,11.783,9.006C7.202,12.887,8.417,15.606,6.048,14.931L6.048,14.931z"
	/>
<path fill="#242B33" d="M447.062,62.625v42.5h-412.5c-5.313,0-8.25-2.938-10.5-6l-24-36.5H447.062z"/>
<path fill="#BEBFC1" d="M98.38,94.886c-0.123-0.185-0.156-0.448-0.098-0.792l0.555-3.359h1.553l0.111-0.672h-1.552l0.218-1.323
	h-0.468l-0.543,1.219l-0.826,0.359l-0.069,0.417h0.767l-0.562,3.396c-0.192,1.163,0.229,1.745,1.264,1.745
	c0.137,0,0.293-0.015,0.469-0.044c0.175-0.03,0.311-0.067,0.407-0.112l0.109-0.661c-0.083,0.024-0.192,0.048-0.329,0.07
	s-0.278,0.033-0.421,0.033C98.698,95.161,98.503,95.069,98.38,94.886z M94.661,95.771l0.611-3.692
	c0.077-0.465,0.035-0.812-0.126-1.042c-0.161-0.229-0.453-0.344-0.875-0.344c-0.56,0-0.997,0.162-1.31,0.484
	c-0.314,0.323-0.533,0.856-0.655,1.6l-0.495,2.994H91l0.943-5.708h0.66l0.002,0.781h0.039c0.212-0.281,0.481-0.499,0.806-0.654
	c0.325-0.154,0.671-0.231,1.039-0.231c0.645,0,1.102,0.166,1.373,0.498c0.271,0.331,0.346,0.861,0.226,1.591l-0.616,3.724H94.661z
	 M89.876,90.664c-0.312-0.471-0.805-0.706-1.475-0.706c-0.716,0-1.331,0.271-1.846,0.812c-0.514,0.542-0.847,1.272-0.999,2.193
	c-0.151,0.913-0.04,1.626,0.332,2.141c0.372,0.514,0.954,0.771,1.745,0.771c0.361,0,0.674-0.028,0.939-0.086s0.552-0.152,0.86-0.284
	l0.127-0.771c-0.605,0.257-1.196,0.386-1.772,0.386c-0.547,0-0.942-0.174-1.186-0.521c-0.244-0.348-0.318-0.856-0.224-1.527h3.685
	l0.09-0.546C90.282,91.755,90.189,91.135,89.876,90.664z M89.312,92.37h-2.797c0.132-0.528,0.352-0.941,0.656-1.24
	c0.305-0.298,0.672-0.448,1.102-0.448c0.423,0,0.725,0.146,0.905,0.436C89.357,91.407,89.402,91.824,89.312,92.37z M81.554,95.771
	l-1.087-5.708h0.869l0.592,3.386c0.129,0.791,0.198,1.306,0.204,1.541h0.039c0.066-0.184,0.242-0.564,0.528-1.144
	c0.286-0.577,0.921-1.84,1.907-3.783h0.869l-2.974,5.708H81.554z M78.923,95.771h-3.979l1.259-7.614h3.979l-0.13,0.786h-3.148
	l-0.405,2.453h2.958l-0.129,0.781h-2.958l-0.463,2.803h3.148L78.923,95.771z M71.103,90.664c-0.313-0.471-0.805-0.706-1.475-0.706
	c-0.716,0-1.331,0.271-1.845,0.812c-0.514,0.542-0.847,1.272-0.999,2.193c-0.151,0.913-0.041,1.626,0.332,2.141
	c0.372,0.514,0.954,0.771,1.745,0.771c0.361,0,0.674-0.028,0.939-0.086s0.552-0.152,0.86-0.284l0.127-0.771
	c-0.605,0.257-1.196,0.386-1.772,0.386c-0.547,0-0.941-0.174-1.186-0.521c-0.244-0.348-0.318-0.856-0.224-1.527h3.686l0.09-0.546
	C71.508,91.755,71.415,91.135,71.103,90.664z M70.537,92.37H67.74c0.133-0.528,0.352-0.941,0.656-1.24
	c0.305-0.298,0.672-0.448,1.102-0.448c0.423,0,0.725,0.146,0.905,0.436S70.627,91.824,70.537,92.37z M65.938,89.958
	c0.237,0,0.447,0.021,0.629,0.062l-0.245,0.803c-0.212-0.052-0.403-0.077-0.573-0.077c-0.433,0-0.834,0.188-1.203,0.562
	c-0.37,0.375-0.601,0.842-0.693,1.4l-0.506,3.062h-0.811l0.943-5.708h0.669l-0.082,1.058h0.039c0.26-0.372,0.546-0.658,0.86-0.86
	C65.278,90.059,65.602,89.958,65.938,89.958z M61.289,90.422c-0.258-0.303-0.706-0.453-1.343-0.453c-0.316,0-0.638,0.043-0.966,0.13
	c-0.329,0.087-0.637,0.207-0.926,0.359l0.14,0.662c0.611-0.292,1.14-0.438,1.585-0.438c0.397,0,0.668,0.107,0.813,0.321
	c0.145,0.213,0.181,0.544,0.107,0.992l-0.059,0.354l-0.913,0.031c-1.737,0.056-2.701,0.66-2.892,1.812
	c-0.089,0.538-0.007,0.953,0.246,1.245c0.252,0.292,0.644,0.438,1.174,0.438c0.397,0,0.739-0.062,1.025-0.19
	c0.286-0.126,0.592-0.368,0.918-0.727h0.039l0.027,0.812h0.6l0.644-3.896C61.621,91.208,61.547,90.724,61.289,90.422z
	 M60.435,93.479c-0.088,0.53-0.3,0.944-0.637,1.239s-0.757,0.442-1.262,0.442c-0.319,0-0.553-0.081-0.704-0.244
	c-0.151-0.163-0.2-0.401-0.148-0.714c0.066-0.399,0.257-0.693,0.573-0.883c0.316-0.189,0.799-0.296,1.447-0.32l0.816-0.036
	L60.435,93.479z M54.501,95.771l0.61-3.692c0.077-0.465,0.035-0.812-0.126-1.042c-0.16-0.229-0.452-0.344-0.875-0.344
	c-0.563,0-1.001,0.163-1.314,0.49c-0.312,0.326-0.53,0.86-0.653,1.603l-0.493,2.985H50.84l1.339-8.104h0.811l-0.405,2.452
	c-0.049,0.296-0.103,0.541-0.161,0.735h0.049c0.205-0.274,0.468-0.491,0.788-0.648c0.321-0.158,0.67-0.237,1.047-0.237
	c0.654,0,1.117,0.166,1.389,0.497c0.272,0.332,0.349,0.858,0.229,1.581l-0.615,3.724H54.501z M49.837,93.745
	c-0.111,0.67-0.425,1.192-0.943,1.567c-0.518,0.375-1.167,0.562-1.948,0.562c-0.846,0-1.478-0.115-1.895-0.349l0.141-0.854
	c0.271,0.132,0.573,0.236,0.905,0.312s0.667,0.114,1.006,0.114c0.553,0,0.988-0.111,1.305-0.335
	c0.317-0.225,0.508-0.536,0.574-0.936c0.043-0.264,0.029-0.48-0.042-0.648s-0.212-0.324-0.421-0.466
	c-0.209-0.143-0.536-0.304-0.981-0.485c-0.622-0.253-1.046-0.553-1.274-0.9c-0.227-0.348-0.295-0.801-0.203-1.359
	c0.097-0.587,0.381-1.054,0.852-1.402c0.471-0.346,1.046-0.52,1.726-0.52c0.709,0,1.339,0.139,1.889,0.417l-0.386,0.771
	c-0.545-0.264-1.097-0.396-1.653-0.396c-0.439,0-0.8,0.101-1.08,0.302c-0.281,0.201-0.451,0.48-0.51,0.838
	c-0.043,0.264-0.034,0.48,0.03,0.649c0.063,0.168,0.191,0.322,0.385,0.463c0.193,0.141,0.498,0.296,0.916,0.467
	c0.702,0.284,1.166,0.59,1.394,0.916C49.853,92.801,49.923,93.224,49.837,93.745z M94.179,78.353
	c0.134-0.815,0.229-1.535,0.289-2.159h0.741l-0.229,1.8h0.067c0.365-0.576,0.849-1.055,1.453-1.439
	c0.647-0.384,1.331-0.575,2.051-0.575c0.27,0,0.531,0.048,0.786,0.143c0.389,0.098,0.721,0.265,0.996,0.504
	c0.357,0.288,0.604,0.697,0.743,1.224c0.174,0.576,0.19,1.296,0.047,2.16l-0.833,5.037h-0.81l0.833-5.037
	c0.159-0.96,0.083-1.728-0.227-2.304c-0.347-0.623-0.97-0.936-1.869-0.936c-0.63,0-1.25,0.216-1.861,0.647
	c-0.603,0.384-1.042,0.864-1.316,1.439c-0.138,0.288-0.227,0.553-0.267,0.792l-0.892,5.397h-0.81L94.179,78.353z M90.917,77.273
	c-0.667-0.864-1.653-1.295-2.957-1.295c-1.214,0-2.293,0.407-3.238,1.223c-1.05,0.912-1.694,2.088-1.932,3.526
	c-0.215,1.296,0.012,2.376,0.679,3.239c0.667,0.864,1.607,1.295,2.821,1.295c1.169,0,2.244-0.383,3.227-1.15
	c0.512-0.385,0.929-0.865,1.249-1.44c0.373-0.622,0.626-1.343,0.762-2.159C91.742,79.216,91.538,78.137,90.917,77.273z
	 M90.707,80.584c-0.198,1.2-0.717,2.159-1.556,2.879c-0.794,0.721-1.686,1.08-2.674,1.08c-0.944,0-1.699-0.336-2.261-1.008
	c-0.557-0.72-0.735-1.68-0.537-2.879c0.182-1.104,0.625-2.016,1.329-2.735c0.764-0.815,1.708-1.224,2.833-1.224
	c1.124,0,1.93,0.432,2.417,1.296C90.715,78.762,90.864,79.625,90.707,80.584z M81.15,71.875h0.81l-2.176,13.171h-0.81L81.15,71.875z
	 M76.818,77.273c-0.162-0.385-0.425-0.695-0.789-0.936c-0.411-0.24-0.953-0.359-1.627-0.359c-0.45,0-0.89,0.071-1.318,0.215
	c-0.563,0.145-1.072,0.36-1.523,0.647l0.163,0.648c0.708-0.479,1.536-0.72,2.48-0.72c0.54,0,0.951,0.096,1.234,0.288
	c0.291,0.144,0.499,0.384,0.623,0.72c0.086,0.288,0.128,0.575,0.126,0.863c0.005,0.24-0.011,0.48-0.05,0.72L76.1,79.576
	c-1.881-0.047-3.345,0.24-4.393,0.863c-0.995,0.576-1.574,1.368-1.741,2.376c-0.104,0.624,0.007,1.176,0.333,1.655
	c0.407,0.528,1.039,0.791,1.893,0.791c0.675,0,1.332-0.168,1.972-0.504c0.542-0.287,0.961-0.646,1.258-1.079h0.067l-0.09,1.367
	h0.809c-0.031-0.622,0.021-1.343,0.155-2.159l0.522-3.167c0.072-0.431,0.116-0.839,0.135-1.224
	C77.001,78.065,76.934,77.657,76.818,77.273z M75.66,82.238c-0.024,0.145-0.097,0.313-0.218,0.505
	c-0.259,0.479-0.616,0.864-1.066,1.151c-0.611,0.432-1.278,0.648-1.996,0.648c-0.54,0-0.939-0.168-1.199-0.505
	c-0.312-0.288-0.417-0.743-0.314-1.367c0.151-0.91,0.774-1.558,1.873-1.943c0.436-0.19,0.951-0.312,1.544-0.359
	c0.502-0.048,1.067-0.072,1.698-0.072L75.66,82.238z M61.538,83.607c0.707,0.623,1.599,0.936,2.678,0.936
	c0.944,0,1.726-0.24,2.345-0.72c0.619-0.479,0.996-1.128,1.131-1.944c0.212-1.295-0.505-2.254-2.156-2.878
	c-2.041-0.72-2.933-1.848-2.679-3.384c0.158-0.958,0.623-1.727,1.392-2.303c0.778-0.623,1.683-0.936,2.719-0.936
	c0.583,0,1.112,0.072,1.583,0.216c0.38,0.144,0.694,0.288,0.941,0.433l-0.469,0.791c-0.193-0.191-0.462-0.336-0.805-0.432
	c-0.426-0.145-0.887-0.216-1.381-0.216c-0.945,0-1.708,0.264-2.289,0.792c-0.477,0.432-0.762,0.935-0.857,1.511
	c-0.198,1.2,0.528,2.112,2.179,2.734c1.061,0.386,1.799,0.817,2.214,1.296c0.445,0.576,0.587,1.344,0.429,2.304
	c-0.159,0.961-0.583,1.752-1.27,2.376c-0.839,0.719-1.91,1.078-3.214,1.078c-1.305,0-2.287-0.311-2.948-0.936L61.538,83.607z
	 M59.182,84.398c-0.241,0.097-0.456,0.169-0.643,0.216c-0.331,0.097-0.64,0.192-0.924,0.288c-0.376,0.097-0.771,0.167-1.183,0.217
	c-0.413,0.047-0.845,0.071-1.294,0.071c-0.944,0-1.752-0.145-2.424-0.433c-0.762-0.287-1.406-0.743-1.932-1.367
	c-0.942-1.103-1.251-2.638-0.925-4.605c0.27-1.632,1.043-3.047,2.321-4.247c0.687-0.622,1.463-1.104,2.328-1.44
	c0.963-0.383,2.007-0.575,3.131-0.575c0.629,0,1.247,0.072,1.853,0.216c0.479,0.097,0.863,0.217,1.154,0.359l-0.4,0.793
	c-0.373-0.191-0.751-0.36-1.131-0.504c-0.479-0.096-1.033-0.145-1.663-0.145c-1.845,0-3.375,0.553-4.591,1.655
	c-1.156,1.008-1.869,2.329-2.137,3.959c-0.27,1.632,0.002,2.976,0.818,4.03c0.822,1.008,2.111,1.512,3.865,1.512
	c1.304,0,2.299-0.168,2.984-0.504l0.701-4.246h-3.036l0.119-0.721h3.913L59.182,84.398z M47.859,74.538
	c-0.902-1.343-2.613-2.016-5.131-2.016c-0.585,0-1.196,0.024-1.834,0.072c-0.503,0.049-1.054,0.12-1.655,0.216l-2.021,12.235
	c0.442,0.048,0.933,0.073,1.473,0.073c0.396,0.047,0.886,0.071,1.471,0.071c2.608,0,4.634-0.695,6.08-2.087
	c0.642-0.623,1.17-1.368,1.583-2.232c0.396-0.766,0.658-1.534,0.785-2.303C48.878,76.938,48.629,75.594,47.859,74.538z
	 M47.733,78.568c-0.287,1.728-1.007,3.096-2.163,4.103c-1.314,1.152-3.028,1.728-5.141,1.728c-0.496,0-0.923,0-1.282,0
	c-0.397-0.047-0.73-0.072-1-0.072l1.785-10.796c0.33-0.096,0.701-0.167,1.114-0.216c0.502-0.047,1.001-0.072,1.497-0.072
	c2.068,0,3.536,0.504,4.405,1.512C47.732,75.715,47.994,76.985,47.733,78.568z"/>
<radialGradient id="SVGID_3_" cx="119.8003" cy="61.7793" r="125.446" gradientTransform="matrix(0.9916 0 0 0.0541 0.2382 102.3194)" gradientUnits="userSpaceOnUse">
	<stop  offset="0" style="stop-color:#000000"/>
	<stop  offset="0.1312" style="stop-color:#040404;stop-opacity:0.8688"/>
	<stop  offset="0.2575" style="stop-color:#0F0F0F;stop-opacity:0.7425"/>
	<stop  offset="0.3819" style="stop-color:#232323;stop-opacity:0.6181"/>
	<stop  offset="0.5051" style="stop-color:#3E3E3E;stop-opacity:0.4949"/>
	<stop  offset="0.6274" style="stop-color:#616161;stop-opacity:0.3726"/>
	<stop  offset="0.7491" style="stop-color:#8C8C8C;stop-opacity:0.2509"/>
	<stop  offset="0.8704" style="stop-color:#BFBFBF;stop-opacity:0.1296"/>
	<stop  offset="0.9885" style="stop-color:#F9F9F9;stop-opacity:0.0115"/>
	<stop  offset="1" style="stop-color:#FFFFFF;stop-opacity:0"/>
</radialGradient>
<path opacity="0.25" fill="url(#SVGID_3_)" d="M119.025,112.562c65.719,0,119.006-3.134,119.006-7h-238
	C0.031,109.429,53.308,112.562,119.025,112.562z"/>
</svg>
